<svg xmlns="http://www.w3.org/2000/svg" width="29.008" height="24.132" viewBox="0 0 29.008 24.132">
    <g id="prefix__next-3" transform="translate(0 -41.346)">
        <g id="prefix__Group_490" data-name="Group 490" transform="translate(0 41.346)">
            <path id="prefix__Path_297" d="M28.544 52.285L18.068 41.809a1.592 1.592 0 0 0-2.245 0l-.951.951a1.576 1.576 0 0 0-.463 1.123 1.607 1.607 0 0 0 .463 1.136l6.111 6.125H1.567A1.549 1.549 0 0 0 0 52.7v1.35a1.609 1.609 0 0 0 1.567 1.63h19.486l-6.18 6.159a1.572 1.572 0 0 0 0 2.229l.951.948a1.593 1.593 0 0 0 2.245 0l10.475-10.477a1.6 1.6 0 0 0 0-2.253z" data-name="Path 297" transform="translate(0 -41.346)" style="fill:#fff"/>
        </g>
    </g>
</svg>
