<svg xmlns="http://www.w3.org/2000/svg" width="89.839" height="36.274" viewBox="0 0 89.839 36.274">
    <defs>
        <style>
            .prefix__cls-1{fill:#15246d}.prefix__cls-2{fill:#af319d}
        </style>
    </defs>
    <g id="prefix__Asset_10" data-name="Asset 10">
        <g id="prefix__Group_2048" data-name="Group 2048" transform="translate(2.102 18.7)">
            <path id="prefix__Path_16884" d="M26.546 91.092l-7.4-11.558-7.522 11.558H8.607l9.541-14.351h1.977L29.6 91.092z" class="prefix__cls-1" data-name="Path 16884" transform="translate(-8.607 -76.699)"/>
            <path id="prefix__Path_16885" d="M134.357 94.267l-1.733-3.18H125.2a7.351 7.351 0 0 1-2.079-.255 3.815 3.815 0 0 1-1.4-.713 2.7 2.7 0 0 1-.785-1.09 3.873 3.873 0 0 1-.244-1.407V80.2a3.876 3.876 0 0 1 .244-1.407 2.7 2.7 0 0 1 .785-1.091 3.812 3.812 0 0 1 1.4-.714 7.378 7.378 0 0 1 2.079-.254h9.479a7.38 7.38 0 0 1 2.079.254 3.81 3.81 0 0 1 1.4.714 2.7 2.7 0 0 1 .785 1.091 3.876 3.876 0 0 1 .244 1.407v7.42a3.311 3.311 0 0 1-.867 2.354 4.335 4.335 0 0 1-2.9 1.091l1.835 3.2zm2.12-14.086q0-1.325-1.794-1.325H125.2q-1.794 0-1.794 1.325v7.461q0 1.326 1.794 1.326h9.479q1.793 0 1.794-1.326z" class="prefix__cls-2" data-name="Path 16885" transform="translate(-93.322 -76.694)"/>
            <path id="prefix__Path_16886" d="M210.923 91.087a7.352 7.352 0 0 1-2.079-.255 3.815 3.815 0 0 1-1.4-.713 2.7 2.7 0 0 1-.785-1.09 3.873 3.873 0 0 1-.244-1.407V80.2a3.876 3.876 0 0 1 .244-1.407 2.7 2.7 0 0 1 .785-1.091 3.812 3.812 0 0 1 1.4-.714 7.38 7.38 0 0 1 2.079-.255h9.477a7.38 7.38 0 0 1 2.079.254 3.81 3.81 0 0 1 1.4.714 2.7 2.7 0 0 1 .785 1.091 3.876 3.876 0 0 1 .244 1.407v7.42a3.873 3.873 0 0 1-.244 1.407 2.7 2.7 0 0 1-.785 1.091 3.812 3.812 0 0 1-1.4.713 7.351 7.351 0 0 1-2.079.255zM222.2 80.181q0-1.325-1.794-1.325h-9.479q-1.794 0-1.794 1.325v7.461q0 1.326 1.794 1.326h9.473q1.793 0 1.794-1.326z" class="prefix__cls-1" data-name="Path 16886" transform="translate(-158.105 -76.694)"/>
            <path id="prefix__Path_16887" d="M296.642 91.087a7.351 7.351 0 0 1-2.079-.255 3.816 3.816 0 0 1-1.4-.713 2.7 2.7 0 0 1-.785-1.09 3.873 3.873 0 0 1-.244-1.407V80.2a3.876 3.876 0 0 1 .244-1.407 2.7 2.7 0 0 1 .785-1.091 3.812 3.812 0 0 1 1.4-.714 7.379 7.379 0 0 1 2.079-.255h9.479a7.38 7.38 0 0 1 2.079.254 3.81 3.81 0 0 1 1.4.714 2.7 2.7 0 0 1 .785 1.091 3.877 3.877 0 0 1 .244 1.407v7.42a3.874 3.874 0 0 1-.244 1.407 2.7 2.7 0 0 1-.785 1.09 3.812 3.812 0 0 1-1.4.713 7.352 7.352 0 0 1-2.079.255zm11.273-10.906q0-1.325-1.794-1.325h-9.479q-1.794 0-1.794 1.325v7.461q0 1.326 1.794 1.326h9.479q1.793 0 1.794-1.326z" class="prefix__cls-1" data-name="Path 16887" transform="translate(-222.889 -76.694)"/>
            <rect id="prefix__Rectangle_961" width="2.804" height="9.9" class="prefix__cls-1" data-name="Rectangle 961" rx="1.402" transform="rotate(180 12.498 7.174)"/>
            <circle id="prefix__Ellipse_564" cx="1.634" cy="1.634" r="1.634" class="prefix__cls-2" data-name="Ellipse 564" transform="translate(21.961)"/>
        </g>
        <g id="prefix__Group_2052" data-name="Group 2052">
            <path id="prefix__Path_16888" d="M99.533 5.935l-.022-.018a1.049 1.049 0 0 1-.343-.851 1.323 1.323 0 0 1 .594-.992c.1-.067.2-.133.317-.2a7.168 7.168 0 0 0-.141-.973c-.029-.13-.059-.257-.094-.377a1.306 1.306 0 0 0 .9-1.223 1.243 1.243 0 0 0-.1-.5A1.37 1.37 0 0 0 99.379 0a1.41 1.41 0 0 0-.767.224A1.412 1.412 0 0 0 97.845 0a1.369 1.369 0 0 0-1.264.806 1.24 1.24 0 0 0-.1.5 1.305 1.305 0 0 0 .888 1.218c-.036.122-.068.254-.1.387a7.216 7.216 0 0 0-.139.959c.12.067.231.136.332.206a1.323 1.323 0 0 1 .594.992 1.05 1.05 0 0 1-.343.851l-.022.018a.757.757 0 0 1 .045.211.9.9 0 0 1-.265.665 2.3 2.3 0 0 0-.194.33 4.993 4.993 0 0 0 .093 3.946l-.024-.041c.949 2.207.064 3.307-.23 4.171a1.649 1.649 0 1 0 2.99 0c-.293-.864-1.178-1.964-.23-4.17l-.023.04a4.994 4.994 0 0 0 .093-3.944 2.358 2.358 0 0 0-.2-.346.9.9 0 0 1-.253-.652.759.759 0 0 1 .04-.212z" class="prefix__cls-1" data-name="Path 16888" transform="translate(-72.915)"/>
            <g id="prefix__Group_2051" data-name="Group 2051" transform="translate(0 1.609)">
                <g id="prefix__Group_2049" data-name="Group 2049" transform="translate(26.902)">
                    <path id="prefix__Path_16889" d="M133.348 6.591a2.644 2.644 0 0 0-.622.116l-.06.016c-.156.05-.307.1-.456.139l-.131.036c-.131.036-.261.071-.387.1-.093.023-.182.042-.273.062a10.818 10.818 0 0 1-2.35.264c-.3 0-.586-.01-.865-.026-.132-.008-.263-.016-.391-.026-.2-.015-.393-.031-.586-.047l-.3-.024-.084-.007c-.191-.014-.386-.024-.579-.037l-.087-.006-.313-.02c-.536-.031-1.079-.051-1.627-.065-.177 0-.352-.01-.53-.013-1.114-.014-2.253.017-3.415.107-.21.016-.421.036-.633.056s-.453.047-.681.073l-.149.019c-.193.024-.386.044-.581.072h-.011l-.03-.009-.089.026c-.131.019-.263.043-.394.064-.16.024-.32.049-.481.078s-.337.064-.506.1-.366.068-.549.107l-.3.064-.6.127-.23.049-.535.118-.43.1a11.731 11.731 0 0 0-3.533 1.27.707.707 0 0 0-.212 1.113.937.937 0 0 0 .62.2 24.406 24.406 0 0 1 3.268.235 20.675 20.675 0 0 1 5.094 1.57c5.356 2.242 13.677-.214 15.156-3.939.381-.987.094-2.128-1.138-2.062zM114.673 8.5a6.42 6.42 0 0 0 .724.269q.116.036.233.069a.466.466 0 0 0-.039.054.427.427 0 0 0-.049.108.507.507 0 0 0-.017.1v.04l-.171-.047a5.532 5.532 0 0 1-.853-.321v-.011a.923.923 0 0 1 .165-.259zm1.574.159c.024-.013.051-.024.078-.037l.063-.026.046.013a1.843 1.843 0 0 1 .224.073q.085.034.168.075l.061.03.073.042c-.052.006-.105.011-.157.019l-.068.012c-.089.014-.177.029-.264.046a.106.106 0 0 0-.021 0 2.561 2.561 0 0 0-.271-.134l-.081-.033a1.377 1.377 0 0 1 .149-.085zm1.691-.6a1.085 1.085 0 0 0 .125-.095 2.65 2.65 0 0 1 .473.29q.125.094.246.2l-.011.011a.453.453 0 0 0-.114.239.679.679 0 0 0-.01.118c-.044 0-.087-.007-.131-.011-.045-.042-.092-.083-.138-.122l-.01-.009-.02-.018a3.532 3.532 0 0 0-.67-.471c.037-.016.071-.031.1-.046a1.459 1.459 0 0 0 .158-.089zm1.968.112c.093-.02.182-.037.264-.052l.078-.015c.054.011.109.019.163.029.08.014.16.031.24.042l.076.011a7.093 7.093 0 0 0 .725.056c.14 0 .279.008.419.006a11.273 11.273 0 0 0 1.725-.171c.139-.024.278-.049.415-.076l.1-.021a.549.549 0 0 1-.055.111c-.01.016-.021.031-.033.047v.006a.886.886 0 0 1-.2.183l-.037.006c-.084.016-.168.028-.252.042h-.027c-.05.008-.1.018-.151.024-.168.026-.334.047-.5.066-.088.01-.175.02-.263.028q-.21.019-.417.03c-.091 0-.18.006-.27.009q-.272.007-.537 0l-.133-.006q-.22-.011-.434-.033-.282-.029-.555-.08c-.119-.022-.237-.045-.352-.073-.063-.016-.125-.034-.188-.052-.042-.012-.086-.022-.127-.035l.1-.031.057-.015.1-.024zm.031-.625a1.136 1.136 0 0 1 .136.014.578.578 0 0 1 .065.015c.076.024.113.058.115.1a.115.115 0 0 1-.024.069q-.1-.079-.216-.151l-.076-.047zm6.018.288a3.227 3.227 0 0 0 .43.355 4.457 4.457 0 0 0 .427.26l.031.017q.1.053.2.1l.037.018c.115.054.231.107.35.157.055.024.112.046.168.069l-.084.015-.088.015q-.165.029-.325.061l-.03.006-.071-.03-.094-.036q-.221-.087-.427-.184l-.114-.055c-.016-.008-.033-.015-.049-.024-.117-.06-.228-.122-.334-.189a3.23 3.23 0 0 1-.361-.257c-.027-.022-.051-.046-.076-.069.13-.081.264-.16.406-.233zm.177-.084a2.821 2.821 0 0 1 .5-.171 3.1 3.1 0 0 0 .488.426 4.408 4.408 0 0 0 .473.291c.036.019.07.039.107.057h.007q.118.06.241.116c.13.06.265.116.4.171l.015.006.018.008h-.03l-.115.026-.1.019-.275.052-.069.012c-.073-.027-.144-.054-.214-.083l-.129-.055-.053-.023q-.14-.06-.271-.125c-.032-.016-.065-.03-.1-.046l-.06-.032a4.026 4.026 0 0 1-.456-.277c-.029-.021-.055-.042-.083-.064q-.092-.071-.176-.147a2.284 2.284 0 0 1-.163-.163l.032-.013zm-10.181 1.121c.012-.014.021-.029.035-.042l.014-.012h.012c.045.013.091.024.136.041s.117.049.175.077l-.106.024-.138.041-.054.016c-.061.018-.122.034-.182.053a.384.384 0 0 1 .037-.094.487.487 0 0 1 .071-.1zm1.324-.543q.093-.028.171-.054l.117-.041a2.743 2.743 0 0 1 .632.4l.02.016q.09.073.177.153-.318-.024-.617-.022l-.117-.1c-.04-.034-.059-.042-.089-.064-.064-.047-.128-.093-.2-.136s-.137-.083-.208-.12c.04-.009.075-.02.111-.031zm1.707.346c0-.007.006-.014.009-.021l.026.007h.018c.106.029.212.058.32.082h.018a7.926 7.926 0 0 0 1.768.171q.214 0 .43-.013a.628.628 0 0 0-.165.2.777.777 0 0 0-.045.1c-.007.019-.015.037-.021.058l-.1-.017c-.668-.119-1.336-.241-2-.351h-.029l-.144-.022-.107-.016a.39.39 0 0 1 0-.114.353.353 0 0 1 .017-.07zm7.236-.024c.067.034.135.066.2.1.151.07.305.136.462.2l-.141.034-.144.039-.15.045-.038.013-.044-.017c-.143-.056-.282-.114-.415-.176l-.125-.06-.033-.016q-.132-.065-.255-.136a3.546 3.546 0 0 1-.4-.266l-.057-.044c.117-.072.232-.147.348-.221a3.682 3.682 0 0 0 .447.318c.04.024.079.049.12.071.06.034.122.068.184.1zm2.16.126h.033c.026.015.051.032.076.049a1.811 1.811 0 0 1 .338.293q.044.049.085.1l.045.059a3.358 3.358 0 0 1 .29.464h-.043c-.1.018-.208.033-.312.049l-.011-.021a4.186 4.186 0 0 0-.273-.449c-.014-.02-.027-.042-.042-.061l-.047-.056a2.5 2.5 0 0 0-.181-.211 2.184 2.184 0 0 0-.206-.18l.1-.016c.05-.01.1-.016.146-.023zm1.7.259a2.735 2.735 0 0 0-.239-.3c-.045-.049-.092-.1-.141-.14l.055-.01c.1-.017.187-.035.272-.055l.088-.021h.014a2.1 2.1 0 0 1 .387.415l.011.015a3.5 3.5 0 0 1 .246.4l.014.028.007.014c-.143.042-.29.081-.44.118l-.01-.02q-.04-.077-.083-.152c-.054-.1-.111-.19-.173-.281zm-15.5.388c.077.024.154.049.232.072l.046.013c-.023.013-.046.024-.069.038h-.006c-.026.015-.053.028-.079.044a1.25 1.25 0 0 1-.083-.108c-.019-.019-.03-.039-.043-.06zm7.193-.319l.018-.014.013.013q.1.1.2.182.056.045.114.089l.019.014.036.026-.049-.008-.122-.024-.382-.065a.344.344 0 0 1 .019-.045.4.4 0 0 1 .132-.172zm3.932-.22c.068.034.137.067.207.1.117.053.236.1.356.152-.036.015-.07.032-.1.049a1.363 1.363 0 0 0-.212.13l-.019.014-.027.021c-.147-.057-.288-.116-.424-.179l-.082-.039c-.116-.055-.228-.113-.334-.174a3.446 3.446 0 0 1-.482-.328l.039-.016a3.712 3.712 0 0 0 .339-.177c.061.046.122.092.188.135.091.06.186.117.282.171s.169.092.256.135zm1.023.256c.054-.02.109-.039.167-.057l.042-.012.049-.014.1.073.016.013a1.957 1.957 0 0 1 .252.247 2.984 2.984 0 0 1 .342.507q-.208.009-.416.012h-.035a3.347 3.347 0 0 0-.284-.42l-.014-.016a2.34 2.34 0 0 0-.3-.3q.042-.012.085-.028zm-4.274.318c-.049-.033-.1-.068-.143-.1A2.606 2.606 0 0 1 122 9.1c-.027-.027-.049-.057-.073-.085a1.825 1.825 0 0 1 .42-.106c.05.054.1.105.156.155s.1.087.147.127.091.072.138.106a4.214 4.214 0 0 0 .452.291l-.2-.031c-.176-.028-.352-.054-.529-.084l-.059-.01zm.959-.26a4.169 4.169 0 0 0 .58.37c.108.058.218.114.331.166l-.1-.013c-.213-.027-.426-.052-.64-.083-.122-.06-.237-.122-.347-.188-.094-.057-.182-.117-.266-.179a2.692 2.692 0 0 1-.269-.224c-.039-.038-.078-.076-.114-.116-.013-.015-.024-.031-.038-.046.16-.015.327-.024.492-.029.042.046.085.091.129.134a3.159 3.159 0 0 0 .246.209zm2.973.086l.056-.028.089-.04.041.029a1.841 1.841 0 0 1 .242.216c.024.024.049.049.07.073a2.825 2.825 0 0 1 .265.378H126.694c-.05-.076-.1-.15-.161-.221v-.006a2.325 2.325 0 0 0-.3-.311c.051-.028.1-.058.159-.085zm-.33.213a1.055 1.055 0 0 1 .085-.068l.068.052a1.96 1.96 0 0 1 .224.22l.043.05c.041.049.081.1.119.156h-.067l-.207-.006h-.056l-.373-.018h-.047a.245.245 0 0 1 .007-.032.515.515 0 0 1 .138-.276.827.827 0 0 1 .067-.068zm-1.613-.812c.073.058.151.113.23.166s.177.112.269.164c.126.071.256.138.391.2l.13.061c.118.053.239.1.361.153a.628.628 0 0 0-.042.049.7.7 0 0 0-.119.236c0 .009 0 .018-.005.027l-.168-.066a5.6 5.6 0 0 1-.818-.408q-.068-.042-.133-.086c-.037-.024-.073-.052-.108-.078a2.583 2.583 0 0 1-.327-.283l-.029-.033.122-.026a2.452 2.452 0 0 0 .248-.077zm-.667.145l.057-.007.056-.007.027.028.024.024a3.3 3.3 0 0 0 .453.362l.013.008a6.384 6.384 0 0 0 1.135.571l.094.038v.015l-.083-.007h-.026q-.417-.03-.835-.075-.187-.077-.36-.162a4 4 0 0 1-.747-.455 2.492 2.492 0 0 1-.223-.2l-.043-.042-.057-.067h.033c.179 0 .348-.009.49-.019zm7.212-.1l.036.049a3.525 3.525 0 0 1 .23.379l.031.063q-.2.073-.412.136c-.008-.015-.015-.03-.024-.044a4.383 4.383 0 0 0-.24-.4l-.013-.019-.024-.034a2.534 2.534 0 0 0-.331-.384l.038-.011c.1-.03.2-.062.282-.1l.062-.024a2.015 2.015 0 0 1 .3.309.875.875 0 0 1 .063.08zm-3 .1a1.719 1.719 0 0 1 .312.244c.038.037.075.076.111.116.022.024.044.049.064.076l.046.06a3.372 3.372 0 0 1 .293.472l-.1.012c-.119.015-.237.029-.357.04-.04-.075-.081-.149-.124-.221-.054-.089-.11-.176-.171-.26l-.027-.032-.04-.049a2.343 2.343 0 0 0-.332-.34c-.019-.016-.036-.033-.056-.049l.055-.011h.009l.036-.007.184-.035.1-.016zm-.536.1h.012a1.6 1.6 0 0 1 .182.128 1.934 1.934 0 0 1 .266.261l.027.032.019.022a3.2 3.2 0 0 1 .311.482h-.006q-.226.02-.452.031h-.022a3.6 3.6 0 0 0-.359-.545c-.029-.035-.058-.071-.088-.1a2.247 2.247 0 0 0-.233-.22L127.2 9c.081-.021.162-.039.244-.057zm-12.116.332c-.116.051-.231.105-.342.164l-.1-.028c-.13-.037-.255-.078-.379-.12a.7.7 0 0 1-.049-.336.678.678 0 0 1 .011-.073 6.5 6.5 0 0 0 .764.282l.207.061-.11.05zm16.033-.077l-.032-.061c-.07-.13-.143-.257-.225-.378l-.042-.058a2.5 2.5 0 0 0-.342-.4l.039-.02a2.13 2.13 0 0 0 .267-.157l.033-.024a1.926 1.926 0 0 1 .372.357q.051.063.1.129a3.591 3.591 0 0 1 .26.433h-.008c-.135.06-.274.118-.418.171zm.428-1.749a1.742 1.742 0 0 1 .41.328 2.4 2.4 0 0 1 .23.289 3.806 3.806 0 0 1 .258.444 4.236 4.236 0 0 1-.37.242h-.007a4.809 4.809 0 0 0-.253-.437 2.929 2.929 0 0 0-.193-.26 2.251 2.251 0 0 0-.37-.342l.016-.016a3.09 3.09 0 0 1 .275-.242zm-.376.342l.008-.008a1.735 1.735 0 0 1 .238.188 2.031 2.031 0 0 1 .143.15 2.493 2.493 0 0 1 .184.239 3.858 3.858 0 0 1 .252.44c-.12.068-.244.13-.374.19a4.39 4.39 0 0 0-.26-.437q-.052-.076-.108-.148a2.381 2.381 0 0 0-.158-.184 2.25 2.25 0 0 0-.2-.184l.017-.015c.093-.076.175-.154.254-.233zm-1.934.84l.06-.008h.028c.033.024.065.051.1.078s.052.049.077.073a2.269 2.269 0 0 1 .246.287l.011.016q.046.064.089.132.093.147.176.307l.007.014q-.174.042-.352.081l-.068.015h-.015a4.3 4.3 0 0 0-.275-.458l-.024-.034c-.044-.061-.09-.122-.139-.179a2.3 2.3 0 0 0-.247-.248l-.028-.024h.063l.04-.005zm-.558.075l.049-.006a1.659 1.659 0 0 1 .155.114 1.9 1.9 0 0 1 .185.173c.046.049.089.1.131.157l.028.039a3.314 3.314 0 0 1 .25.4l.032.06q-.167.034-.336.066l-.085.016a4.235 4.235 0 0 0-.281-.462l-.041-.057-.1-.129c-.032-.042-.05-.057-.076-.085a2.2 2.2 0 0 0-.256-.237l.208-.027zm-4.8-.982c0 .009 0 .019.006.028a.347.347 0 0 1 .01.118l-.063.014-.042.01c-.119.026-.237.052-.353.075q-.289.058-.569.1a8.255 8.255 0 0 1-1.547.1 5.869 5.869 0 0 1-.83-.085c-.035-.006-.069-.015-.1-.022l-.094-.02.072-.017c.056-.014.107-.028.154-.042l.029-.008a1.842 1.842 0 0 0 .375-.151 7.065 7.065 0 0 0 2.86-.244.382.382 0 0 1 .1.142zm-4.73.6h.019c.13.037.261.071.392.1l.06.015c.089.019.18.031.27.047.14.024.28.045.422.062q.3.034.6.045h.129q.288.007.58 0c.122 0 .242-.009.364-.018s.218-.017.328-.027.229-.024.344-.038c.139-.017.278-.034.418-.055.075-.011.15-.024.225-.037h.01l.142-.005c-.037.02-.076.038-.118.055l-.024.009c-.035.013-.07.027-.107.038-.055.016-.109.03-.163.043-.106.024-.21.045-.312.062-.163.026-.319.043-.467.059l-.19.021a3.11 3.11 0 0 0-.388.064 1.34 1.34 0 0 0-.133.04.926.926 0 0 0-.128.058c-.175.008-.348.011-.519.01a7.528 7.528 0 0 1-1.563-.165c-.064-.014-.127-.031-.19-.047-.115-.029-.231-.059-.342-.095a.845.845 0 0 1 .293-.206zm-2.775-.29h.018l.092-.018.282-.056h.02c.012.049-.032.113-.115.185-.021.018-.04.036-.066.055l-.053-.007-.092-.024c-.1-.027-.2-.053-.3-.083zm.1.447l.115-.033.074-.019.076-.02.047-.012a2.3 2.3 0 0 1 .293.151c.035.021.07.047.1.07.076.051.15.1.224.163h-.128c-.149.006-.293.016-.436.031l-.079-.052-.008.007c-.042-.026-.086-.052-.13-.076l-.04-.021a2.526 2.526 0 0 0-.28-.124c.058-.02.115-.037.171-.054zm-3.327 1.927a2.561 2.561 0 0 0-.947-.157c-.57-.054-.711-.541-.244-.833a15.356 15.356 0 0 1 1.661-.592l.059-.024a.854.854 0 0 0-.034.187.051.051 0 0 1 0 .006 1.281 1.281 0 0 0 .243.81 1.048 1.048 0 0 0 .122.141.8.8 0 0 0 .16.124 2.425 2.425 0 0 0-.954.3.552.552 0 0 0-.066.039zM133.5 7.626a2.7 2.7 0 0 0-.484-.651c.467-.042.8.1.484.65zm-1.08-.528a3.253 3.253 0 0 1 .454-.106 2.249 2.249 0 0 1 .577.714l-.017.028a2.836 2.836 0 0 1-.278.349 4.413 4.413 0 0 0-.275-.461c-.024-.035-.049-.071-.075-.106a2.353 2.353 0 0 0-.4-.415zm-.127.054a1.851 1.851 0 0 1 .374.334l.047.055c.039.049.076.1.112.149a3.735 3.735 0 0 1 .269.46 3.317 3.317 0 0 1-.342.3 4.6 4.6 0 0 0-.259-.442 2.867 2.867 0 0 0-.219-.286 2.254 2.254 0 0 0-.3-.281c-.031-.024-.063-.047-.1-.07l.009-.006a2.4 2.4 0 0 1 .4-.216zm-3.187.34c.314.066.418.226.4.4a.5.5 0 0 1-.052.159.7.7 0 0 1-.045.076c-.092-.045-.181-.092-.265-.141a2.585 2.585 0 0 1-.46-.332 1.579 1.579 0 0 1-.2-.218 3.686 3.686 0 0 1 .621.054zm-1.306-.043c.181-.009.362-.013.536-.013a2.557 2.557 0 0 0 .744.606l.108.061.043.023.129.066-.016.018a1.03 1.03 0 0 1-.246.206l-.024.015c-.06-.027-.119-.054-.177-.083l-.039-.02q-.142-.07-.275-.144l-.049-.027c-.023-.013-.047-.024-.069-.039-.1-.057-.187-.117-.274-.179-.049-.034-.1-.068-.14-.1s-.106-.088-.155-.134a2.129 2.129 0 0 1-.23-.247l.134-.008zm-.887.075h.008c.162-.021.351-.04.551-.054h.018l.037.044a3.017 3.017 0 0 0 .486.434c.1.073.206.143.315.209l.012.008.035.021.143.08q.175.1.359.185l.081.039c-.023.01-.049.018-.073.027h-.01q-.106.04-.222.073l-.081.024-.188-.073-.1-.043c-.09-.038-.179-.076-.265-.116l-.165-.079-.071-.036c-.107-.056-.208-.115-.305-.176-.054-.034-.108-.067-.158-.1s-.1-.076-.15-.115a2.331 2.331 0 0 1-.339-.333.7.7 0 0 1 .087-.018zm-3.147-.093a.779.779 0 0 1 .178.083 5.655 5.655 0 0 1-2.631.209l.084-.068a1.213 1.213 0 0 1 .684-.265q.723-.022 1.432-.017a1.291 1.291 0 0 1 .251.058zm-4.005.109c.06.03.119.063.178.1.081.049.161.1.24.16a.741.741 0 0 1-.093.07 1.609 1.609 0 0 1-.19.105l-.042.019q-.069-.059-.139-.114c-.069-.054-.14-.105-.213-.155s-.138-.09-.21-.131l.126-.014.348-.038zm-.868.1l.239-.031a2.315 2.315 0 0 1 .239.126 3.1 3.1 0 0 1 .315.222c.029.023.058.045.086.069l-.1.04c-.068.024-.134.049-.2.07l-.122.04c-.015-.013-.031-.024-.046-.038s-.057-.049-.086-.072c-.066-.053-.134-.1-.2-.153a3 3 0 0 0-.382-.236l.1-.013zm-.577.1l.047-.028.091-.013a2.364 2.364 0 0 1 .5.266c.036.024.073.046.107.072.069.052.136.108.2.166l-.064.022a1.268 1.268 0 0 0-.357.171l-.016-.014c-.073-.063-.147-.124-.222-.183l-.06-.045a3.084 3.084 0 0 0-.41-.263l.018-.018a1.008 1.008 0 0 1 .165-.134zm-2.168.38l.06-.012.023.008c.161.053.326.1.493.148l-.027.017c-.057.032-.114.061-.171.088s-.132.061-.2.088h-.005l-.1-.026q-.152-.04-.3-.085c-.064-.02-.129-.039-.192-.06l-.157-.055.109-.022.462-.091zm-.77.153l.031.011c.07.027.14.053.212.078.088.03.177.057.266.085s.183.054.275.079l-.135.055c-.055.024-.108.047-.157.073l-.058.032a.9.9 0 0 0-.091.06c-.1-.028-.2-.058-.3-.089a5.4 5.4 0 0 1-.656-.25l.114-.024q.252-.056.5-.109zm18.843.426c-1.289 3.167-8.55 5.388-13.524 3.829a39.8 39.8 0 0 0-6.511-1.915c-.088-.012-.176-.026-.266-.037a2.505 2.505 0 0 1 .894-.21 4.169 4.169 0 0 1 .821.026 3.671 3.671 0 0 1 .866.211c.214.085.443.177.678.269a21.945 21.945 0 0 0 3.451 1.106c.338.073.681.127 1.028.172a14.676 14.676 0 0 0 2.579.1 16.862 16.862 0 0 0 3.184-.461 16.127 16.127 0 0 0 3.449-1.257 11.838 11.838 0 0 0 1.294-.753 5.493 5.493 0 0 0 1.272-1.14 2.983 2.983 0 0 0 .256-.4l.022-.04a2.069 2.069 0 0 0 .236-.822 1.868 1.868 0 0 0-.008-.365c.517.218.637.808.28 1.685z" class="prefix__cls-1" data-name="Path 16889" transform="translate(-110.147 -6.589)"/>
                    <path id="prefix__Path_16890" d="M130.785 28.614c-1.294-.779-3.562-.735-5.206-.828a22.994 22.994 0 0 1-5.131-1.041c-1.359-.407-2.687-.945-4.036-1.389-.408-.135-.835-.288-1.273-.435a8.63 8.63 0 0 0-3.193-.583c-.3.017-.415.147-.424.294a.449.449 0 0 0 .2.363 1.444 1.444 0 0 1 .586.907c.037.157.063.328.091.513l.021.136c.018.113.041.22.064.328v.02q.053.247.122.477l.006.021q.068.224.15.432l.016.044c.06.149.126.291.2.429.078.153.162.3.25.437a5.574 5.574 0 0 0 .889 1.083 6.161 6.161 0 0 0 .5.423c.18.138.361.26.537.371h.006q.153.095.3.177l.026.014.163.089c.071.037.142.073.21.106.045.022.091.039.136.06a6.551 6.551 0 0 0 1.6.5 7.315 7.315 0 0 0 .819.1q.215.014.431.016h.269l.191-.005c.134-.005.269-.013.4-.024l.089-.007q.281-.024.562-.062.213-.029.426-.064c.349-.058.7-.128 1.043-.2q.345-.077.687-.161l.472-.118A7.647 7.647 0 0 1 126 31c1.753.266 3.37.771 4.267.179a1.331 1.331 0 0 0 .518-2.565zm-12.014 1.125c.016.151.024.3.028.446v.126c0 .113 0 .225-.012.336 0 .037-.009.073-.013.11l-.014.122c-.013.1-.03.19-.051.283l-.083-.034-.055-.024c-.12-.051-.234-.1-.34-.162l-.073-.043c.013-.045.024-.09.036-.136.023-.095.042-.19.059-.285l.018-.1.015-.087a5.427 5.427 0 0 0 .041-.9c0-.056-.005-.111-.008-.167s0-.108-.009-.161c-.007-.081-.016-.161-.024-.242q-.023-.2-.055-.406v-.027c0-.022-.006-.045-.01-.067l.029.037.035.045.018.023c.115.149.22.3.318.457l.026.041.018.088.01.054.039.222q.035.229.057.451zm-4.058.053a10.82 10.82 0 0 0-.684-1.423c-.066-.116-.136-.228-.2-.342 0-.02 0-.04-.007-.06-.014-.115-.024-.229-.033-.344 0-.054-.009-.108-.013-.163v-.035l.017.026q.125.187.241.371.093.147.181.293c.109.182.21.364.3.544q.077.147.147.293c.1.2.186.406.263.611v.008c.024.064.045.127.067.191q.042.122.079.247l.024.083-.039-.028-.038-.027c-.058-.044-.113-.089-.169-.134s-.092-.073-.136-.111zm-1-1.125c-.017-.024-.032-.051-.049-.076-.088-.133-.171-.27-.247-.41l-.013-.024c.059-.029.117-.062.173-.1l.032-.02v.046c0 .015 0 .028.005.042a3.507 3.507 0 0 0 .074.449c.009.03.012.06.021.09zm-.825-1.825c.087-.031.171-.063.254-.1a2.547 2.547 0 0 0 .287-.153l.021-.013c.015.063.031.126.042.188l.018.1v.03a1.7 1.7 0 0 1-.161.115c-.042.026-.084.052-.128.076a2.476 2.476 0 0 1-.238.108l-.007-.021c-.035-.107-.065-.218-.091-.33zm-.1-.511l.082-.034a2.609 2.609 0 0 0 .412-.212l.019.013c.037.095.065.185.093.276.009.03.022.062.03.092a1.934 1.934 0 0 1-.339.207c-.07.034-.143.065-.22.094 0-.02-.008-.041-.012-.061-.028-.125-.053-.25-.066-.375zm6.674 3.437l-.122-.224-.058-.107.049.011q.189.044.378.082l.23.042a5.922 5.922 0 0 0 1.048.1 4.26 4.26 0 0 0 .6-.046 3.772 3.772 0 0 1 .244.436 3.8 3.8 0 0 1-.546.054 5.519 5.519 0 0 1-.851-.049l-.19-.027-.116-.019q-.174-.03-.351-.066l-.088-.018-.15-.034c-.028-.046-.053-.089-.078-.135zm-1.235-.861c.015.122.026.244.034.363a4.875 4.875 0 0 1 .006.55c-.006.115-.016.228-.031.34-.008.056-.017.111-.027.167s-.017.087-.027.13c-.016.075-.035.15-.056.225-.008.029-.018.057-.027.086l-.024.078-.019-.011-.091-.06a3.224 3.224 0 0 1-.326-.247l-.012-.011.014-.052c.031-.112.059-.224.081-.337a.063.063 0 0 1 0-.013c.012-.061.022-.122.032-.184a5.689 5.689 0 0 0 .033-1.333c0-.051-.011-.1-.016-.152s-.01-.108-.017-.163c-.021-.168-.048-.335-.077-.5l.04.032.029.023c.038.032.071.066.106.1q.135.125.253.257c.013.065.028.131.04.2a.076.076 0 0 0 0 .015l.022.129c.016.092.031.184.043.274 0 .036.008.071.012.106zm-2.473 1.357a2.289 2.289 0 0 1-.114-.2l-.011-.021c-.021-.042-.035-.082-.051-.122.033.015.066.031.1.044l.024.01a3.289 3.289 0 0 0 .588.166l.051.009.139.024c.169.024.342.043.516.057h.035l.034.041q.078.094.165.186c.044.046.086.093.134.138l.007.008h-.018q-.167-.009-.328-.024c-.116-.011-.228-.027-.339-.044a3.326 3.326 0 0 1-.929-.273zm-.628-1.375c-.042-.1-.087-.2-.133-.3l-.019-.042-.05-.109a10.437 10.437 0 0 0-.647-1.133q-.079-.121-.161-.24c-.054-.08-.109-.159-.165-.238l-.078-.107c-.068-.094-.137-.188-.207-.28l-.072-.093v-.006c-.008-.027-.014-.053-.023-.081.062.029.134.056.2.083s.161.063.247.092l.02.023.024.028q.288.33.528.652a6.1 6.1 0 0 1 .487.757c.031.059.058.119.086.178q.073.155.133.311c.02.053.041.1.058.157l.034.12-.046.144c-.015.044-.03.1-.043.154l-.02.081c-.012.052-.023.106-.032.161-.03-.082-.063-.162-.1-.242zm-1.934-1.161c.043-.019.086-.04.128-.061a2.366 2.366 0 0 0 .256-.144v.049l.021.343c-.024.02-.053.038-.079.056a1.783 1.783 0 0 1-.161.1c-.058-.11-.112-.221-.162-.334zm.366-.435c0 .033.006.067.008.1l-.012.01a1.785 1.785 0 0 1-.284.189l-.083.043-.031.016-.015-.033c-.041-.1-.077-.2-.112-.293l-.019-.053c.059-.022.117-.046.173-.071.076-.034.151-.07.223-.11.041-.023.081-.049.122-.073 0 .03.009.06.012.089.007.062.012.124.017.186zm4.9.9l-.029-.032q-.095-.106-.2-.212l-.055-.055.049.009c.153.028.306.051.459.066a3.177 3.177 0 0 0 .794-.011 6.439 6.439 0 0 1 .581.293l.119.07c-.082.016-.166.029-.252.038-.058.006-.117.008-.176.011a4.169 4.169 0 0 1-.632-.021c-.124-.013-.249-.032-.376-.053-.073-.012-.149-.024-.225-.04l-.054-.064zm.851-.306a2.806 2.806 0 0 1-.645.008c-.149-.014-.3-.037-.456-.066l-.14-.029-.03-.027c-.088-.079-.183-.157-.285-.235l-.082-.062-.047-.035q-.1-.075-.217-.15l.244.062.059.015.251.068.184.051c.139.04.278.082.415.126q.342.11.669.243l.079.032zm-1.6.621a5.5 5.5 0 0 1 .04.762v.122a4.034 4.034 0 0 1-.05.473c-.012.071-.027.142-.044.212 0 .013-.005.027-.009.041a3.426 3.426 0 0 1-.1.329l-.031-.029a3.217 3.217 0 0 1-.29-.323l-.012-.016-.066-.086-.024-.034c.022-.087.042-.175.059-.263v-.027c.018-.1.035-.192.046-.288a.26.26 0 0 1 0-.031c.007-.058.011-.116.015-.174a6.172 6.172 0 0 0-.018-1.1c-.022-.218-.051-.435-.088-.653l.046.024c.107.061.212.126.312.2.024.018.047.038.072.055l.01.05q.049.236.085.462c.016.1.029.2.04.294zm-1.49 1.541a2.558 2.558 0 0 1-.466-.156c-.04-.018-.078-.037-.116-.057s-.077-.041-.113-.064c-.009-.031-.019-.062-.026-.092s-.013-.073-.018-.109-.011-.083-.013-.123l.042.021a2.271 2.271 0 0 0 .3.122q.1.034.212.061l.042.011c.054.012.109.024.164.033.108.02.217.035.327.049l.144.015c.013.022.024.044.039.066.034.056.071.111.109.166l.049.07.07.1c-.171-.013-.335-.031-.493-.057-.064-.011-.126-.023-.188-.036l-.064-.017zm-.988-.711zm-1.053-2.845l.2.063c.091.027.179.053.266.077a7.317 7.317 0 0 1 .892 1.327c.012.024.026.049.037.073a3.073 3.073 0 0 1-.091.342l-.013.039-.04.122c-.02-.053-.039-.107-.061-.16q-.071-.171-.153-.337c-.04-.08-.083-.158-.127-.236a7.134 7.134 0 0 0-.391-.621c-.162-.236-.339-.465-.524-.689zm2.3.625l.049.019c.044.2.081.4.111.591v.035c.03.2.051.387.063.574q.013.206.009.4 0 .16-.016.316c0 .04-.008.081-.012.121l-.012-.027-.022-.049q-.049-.108-.094-.218l-.032-.077h-.006l-.039-.1-.175-.429v-.03a8.79 8.79 0 0 0-.156-1.243q.166.05.325.108zm.722 1.482a4.622 4.622 0 0 1-.007.464c0 .017 0 .034-.005.051 0 .059-.012.117-.019.175-.015.121-.036.24-.063.358v.012c-.015.065-.033.131-.052.2l-.068-.107-.062-.1c-.058-.1-.111-.2-.161-.3-.009-.017-.017-.034-.024-.052 0-.036.01-.073.014-.109.008-.078.012-.157.016-.235s.005-.131.007-.2q0-.193-.006-.386t-.029-.371c-.008-.076-.016-.153-.026-.229q-.038-.3-.093-.593l.084.034c.115.049.226.1.335.159.046.224.083.442.11.654.025.2.042.39.047.578zm-1.02 1.009q-.084-.018-.164-.04l-.016-.007q-.107-.031-.207-.07a1.714 1.714 0 0 1-.3-.15l-.034-.022v-.049c0-.049.007-.1.014-.143s.012-.069.019-.1a2.464 2.464 0 0 0 .263.107c.026.009.053.015.079.023q.155.047.315.08c.1.02.2.037.3.051l.043.095c.032.067.067.133.1.2l.014.026.04.071-.075-.009a3.883 3.883 0 0 1-.393-.061zm-.632-.8l.041-.138.013-.042c.05.022.1.046.152.065.075.028.151.052.229.073s.142.035.214.051l.064.015c.038.1.078.2.122.3l.033.073c-.085-.013-.167-.03-.248-.049-.055-.012-.112-.022-.164-.037s-.075-.027-.113-.04c-.054-.018-.109-.035-.16-.057a1.811 1.811 0 0 1-.208-.107c.005-.033.014-.069.024-.106zm.524-.476c.039.1.078.207.117.313l.009.024.03.077-.031-.008c-.071-.017-.141-.035-.208-.056a2.2 2.2 0 0 1-.242-.092h-.01c-.037-.017-.071-.037-.106-.056l.034-.108.06-.2.049-.189v-.01c.02-.088.038-.178.05-.272.063.128.119.262.174.4l.07.184zm-.484-.992a1.921 1.921 0 0 1 .005.583 8.222 8.222 0 0 0-.816-1.261l.11.029c.066.04.127.082.186.125a2.225 2.225 0 0 1 .514.525zm.464-.366a8.5 8.5 0 0 1 .177 1.12l-.088-.2a4 4 0 0 0-.621-.99c-.024-.027-.046-.054-.071-.08l.071.016.024.005q.223.049.44.107l.067.017zm4.108 1.934a4.7 4.7 0 0 1-.622-.066c-.1-.017-.2-.037-.308-.059-.128-.028-.258-.06-.388-.095l-.061-.088c-.031-.043-.062-.087-.1-.131s-.053-.07-.081-.1l.145.024c.136.022.272.042.408.056.048 0 .1.008.143.011l.068.005h.057a3.826 3.826 0 0 0 .907-.053 4.778 4.778 0 0 1 .483.358l.086.073a2.836 2.836 0 0 1-.452.06c-.1.005-.192.005-.29 0zm-7.4-3.33c.017.028.038.054.058.081a1.436 1.436 0 0 0 .167.2 1.863 1.863 0 0 0 .192.159l.013.009c-.042.03-.086.056-.132.083q-.094.055-.2.1c-.028.013-.055.027-.084.039a3.832 3.832 0 0 1-.019-.551c.008-.041.005-.08.008-.119zm2.436 4.586l-.007-.023c-.023-.076-.044-.153-.069-.228-.013-.04-.029-.079-.043-.119l-.061-.167q-.056-.15-.118-.3c-.045-.107-.091-.214-.139-.32q-.171-.372-.369-.731-.079-.143-.161-.284l-.14-.235-.167-.272-.058-.09-.07-.109-.043-.067q-.011-.112-.026-.227l-.019-.135v-.006c-.008-.049-.016-.1-.026-.149l-.031-.139.105.136c.046.06.09.12.134.18l.061.082c.047.064.092.128.137.192s.095.137.141.206l.059.087a8.259 8.259 0 0 1 .6 1.083c.02.044.041.087.06.131.04.091.076.184.111.276.042.112.083.224.118.338.01.032.018.064.028.1l.015.053a.2.2 0 0 1 0 .032q-.005.1 0 .209c0 .042 0 .085.007.13s.008.067.012.1q.016.124.046.259l.018.086c-.038-.024-.072-.051-.107-.075zm.677.278a4.072 4.072 0 0 0 .537.141q.2.039.409.064h.016l.2.022.129.01.108.008.2.011c.027.024.054.049.082.072.075.064.157.127.241.189-.089 0-.177 0-.265.005s-.2 0-.3-.006a3.743 3.743 0 0 1-.909-.143q-.1-.045-.191-.093l-.055-.027c-.034-.039-.061-.073-.092-.112s-.082-.1-.117-.147zm1.793.837h-.1c-.094-.026-.187-.053-.281-.083-.16-.051-.32-.109-.479-.171.185.021.373.032.563.035h.186q.141 0 .284-.006h.079c.085.059.178.116.272.173l.061.039h-.064c-.177.011-.35.015-.519.013zm1.294-2.4l-.036-.059.129.032.192.043.19.037c.064.013.111.021.166.031l.117.016a4.953 4.953 0 0 0 .606.051h.165a3.649 3.649 0 0 0 .557-.052c.018.017.032.035.049.052a3.941 3.941 0 0 1 .289.325l.1.128a3.312 3.312 0 0 1-.6.062q-.2 0-.408-.012a6.065 6.065 0 0 1-.6-.078l-.073-.013-.113-.022c-.1-.021-.2-.043-.306-.068l-.066-.016-.1-.024c-.067-.122-.138-.248-.215-.376-.016-.02-.028-.037-.04-.057zm.863 1.453l-.006-.008a3.233 3.233 0 0 1-.208-.3l.178.037q.187.038.374.069c.062.011.125.021.187.03a6.581 6.581 0 0 0 1 .075 4.9 4.9 0 0 0 .55-.036 4.317 4.317 0 0 1 .16.422 3.654 3.654 0 0 1-1.428 0q-.192-.033-.389-.08-.151-.035-.3-.076c-.041-.045-.08-.089-.115-.133zm-5.413-.817a3.766 3.766 0 0 1-.211-.336c-.054-.1-.1-.192-.143-.284a2.947 2.947 0 0 1-.154-.445c-.018-.071-.033-.14-.046-.21.035.057.072.115.105.171a9.333 9.333 0 0 1 .648 1.289c-.063-.06-.131-.121-.196-.186zm4.1 1.957l-.1-.016-.09-.014-.1-.015c-.093-.016-.187-.035-.281-.056q.131 0 .263-.013l.2-.014.017.009.073.039c.062.032.119.066.184.1zm.277-.284q.036-.2.054-.409c0-.036.008-.071.01-.107.009-.128.014-.256.014-.385 0-.068 0-.136-.006-.2q0-.138-.015-.276v-.016c0-.042-.006-.084-.01-.126q-.017-.18-.042-.36c-.008-.061-.018-.122-.028-.184l.073.123.049.083.086.148q.083.144.168.285l.034.167v.027c.03.171.054.339.071.5a5.11 5.11 0 0 1 .022.881l-.028-.007-.116-.034q-.175-.052-.335-.111zm.865.24q-.166-.033-.319-.073c.008-.133.009-.266.008-.4 0-.108-.008-.216-.015-.324 0-.052-.006-.1-.01-.156s-.01-.121-.017-.181q-.019-.172-.045-.344.059.092.122.183c.073.106.151.208.233.308l.013.062.009.04c.034.168.063.332.087.493.021.14.039.278.051.415l-.118-.022zm.23.044l-.043-.008c-.01-.136-.028-.272-.044-.408q-.03-.243-.073-.484c.041.045.084.088.128.131.07.069.144.136.223.2.017.078.035.157.049.233.02.1.036.2.053.293-.098.015-.194.031-.292.043zm.465-.069l-.1.016c-.012-.088-.024-.176-.04-.264l-.029-.163c.043.032.091.062.137.092.071.047.145.093.223.137s.127.073.2.106c-.129.028-.259.052-.39.076zm1-.22a3.248 3.248 0 0 1-.646-.19 2.235 2.235 0 0 1-.428-.234 2 2 0 0 1-.165-.129l-.028-.024.175.041.085.019q.155.034.311.061a4.454 4.454 0 0 0 1.444.04c.02.071.042.141.058.212-.271.068-.539.138-.807.2z" class="prefix__cls-1" data-name="Path 16890" transform="translate(-111.187 -19.996)"/>
                </g>
                <g id="prefix__Group_2050" data-name="Group 2050">
                    <path id="prefix__Path_16891" d="M24.089 9.473A11.662 11.662 0 0 0 20.556 8.2l-.43-.1-.535-.118-.23-.049-.6-.127-.3-.064c-.184-.039-.366-.072-.549-.107-.168-.032-.336-.066-.5-.1s-.321-.053-.482-.078c-.132-.021-.264-.045-.4-.064l-.089-.026-.03.009H16.4c-.2-.028-.387-.049-.581-.072l-.153-.004c-.228-.027-.455-.052-.681-.073s-.423-.04-.633-.056-.394-.028-.591-.039q-1.436-.091-2.824-.071l-.311.007-.22.005c-.548.014-1.091.034-1.627.065l-.312.02-.087.006-.58.036h-.082l-.3.024-.587.047q-.194.015-.392.026c-.279.016-.565.027-.865.026a10.815 10.815 0 0 1-2.35-.264l-.273-.062c-.126-.031-.256-.066-.387-.1l-.131-.036c-.148-.043-.3-.088-.456-.139l-.06-.016a2.642 2.642 0 0 0-.622-.116C.059 6.525-.229 7.666.164 8.655c1.48 3.725 9.8 6.181 15.156 3.939a20.681 20.681 0 0 1 5.094-1.57 24.4 24.4 0 0 1 3.268-.235.936.936 0 0 0 .619-.2.707.707 0 0 0-.212-1.116zm-17.406-1q.122-.056.241-.116h.008c.036-.018.07-.038.105-.056A4.362 4.362 0 0 0 7.51 8 3.09 3.09 0 0 0 8 7.579v-.005a2.824 2.824 0 0 1 .5.171l.03.013c-.05.056-.1.11-.162.162s-.115.1-.177.147c-.028.021-.054.043-.083.064a4.026 4.026 0 0 1-.456.277L7.6 8.44l-.093.045q-.133.065-.275.126l-.054.024-.128.054-.214.083-.07-.012q-.139-.024-.274-.052l-.1-.019-.115-.026h-.03l.018-.008.016-.006c.137-.06.271-.117.402-.177zm2.407-.41c-.026.023-.05.047-.077.069a3.221 3.221 0 0 1-.36.257c-.106.066-.216.129-.334.189L8.27 8.6l-.113.054q-.208.1-.432.187l-.089.034-.071.025h-.03l-.329-.061-.084-.015-.084-.015.162-.068c.12-.051.238-.1.354-.159l.04-.019.2-.1.031-.017a4.43 4.43 0 0 0 .428-.26 3.224 3.224 0 0 0 .43-.355c.141.073.276.152.406.234zm1.517-.476l.01-.011a7.029 7.029 0 0 0 2.859.244 1.445 1.445 0 0 0 .167.08 1.892 1.892 0 0 0 .208.072l.029.009c.047.014.1.028.154.042l.072.017-.094.02-.1.022a5.869 5.869 0 0 1-.83.085 8.255 8.255 0 0 1-1.547-.1c-.187-.029-.376-.062-.569-.1-.116-.023-.234-.049-.353-.075l-.042-.01-.071-.018a.352.352 0 0 1 .01-.118c0-.01 0-.019.007-.028a.377.377 0 0 1 .086-.131zm4.019 0q-.111.072-.216.151a.118.118 0 0 1-.024-.069c0-.042.039-.077.115-.1a.579.579 0 0 1 .065-.015 1.132 1.132 0 0 1 .136-.014l-.076.049zm3.465.946a2.467 2.467 0 0 0-.28.124l-.04.021c-.044.024-.087.049-.13.076l-.012.007-.08.052c-.142-.015-.287-.024-.436-.031h-.128c.073-.058.148-.112.224-.162.035-.024.069-.049.105-.07a2.3 2.3 0 0 1 .293-.151l.047.012.076.02.07.018.12.034c.057.017.113.031.17.05zm.45.209l-.082.033a2.556 2.556 0 0 0-.271.133h-.021c-.086-.018-.175-.032-.264-.046l-.068-.012c-.051-.008-.1-.012-.156-.019l.073-.042.061-.03q.082-.042.168-.075a1.864 1.864 0 0 1 .224-.073l.046-.013.059.024c.028.012.055.024.081.038a1.36 1.36 0 0 1 .149.086zm.7.022a6.446 6.446 0 0 0 .725-.269.928.928 0 0 1 .165.259v.011a5.544 5.544 0 0 1-.853.321l-.171.047V9.1a.5.5 0 0 0-.017-.1.409.409 0 0 0-.049-.108.437.437 0 0 0-.039-.054l.232-.068zM2.85 9.019a3.589 3.589 0 0 1 .26-.433q.047-.067.1-.129a1.932 1.932 0 0 1 .371-.357l.033.024a2.126 2.126 0 0 0 .267.157l.039.02a2.531 2.531 0 0 0-.342.4l-.042.058a4.316 4.316 0 0 0-.225.378l-.032.061c-.144-.053-.284-.11-.42-.171zm2.1-.427c-.049.045-.1.092-.141.14a2.714 2.714 0 0 0-.239.3l-.009.013c-.062.091-.119.186-.174.282q-.048.073-.087.153l-.011.02c-.148-.037-.3-.076-.44-.118l.008-.016.013-.027a3.546 3.546 0 0 1 .246-.4l.011-.016a2.1 2.1 0 0 1 .387-.423h.014l.088.021q.127.029.272.055zm.784.62q.041-.051.084-.1a1.833 1.833 0 0 1 .337-.293c.024-.017.05-.034.076-.049h.033l.147.021.1.016a2.186 2.186 0 0 0-.206.18 2.464 2.464 0 0 0-.181.211c-.015.019-.033.037-.047.056l-.042.061a4.189 4.189 0 0 0-.273.45l-.011.021c-.1-.015-.208-.03-.312-.049h-.043a3.383 3.383 0 0 1 .29-.464l.044-.057zm2.487-.464c.069-.032.138-.065.205-.1l.038-.02c.063-.032.124-.065.184-.1.041-.023.08-.047.12-.071a3.71 3.71 0 0 0 .447-.316c.116.075.231.149.348.221l-.063.044a3.541 3.541 0 0 1-.4.266q-.122.071-.255.136l-.033.016-.127.061c-.135.062-.275.121-.42.178l-.039.015-.037-.013c-.049-.016-.1-.031-.15-.045L7.9 8.98c-.049-.012-.093-.024-.141-.034.157-.064.31-.129.46-.2zm7.047 0h.019c.107-.024.213-.053.32-.082h.018l.026-.007c0 .007.007.014.009.021a.391.391 0 0 1 .018.07.4.4 0 0 1 0 .114l-.107.016-.144.022h-.029c-.667.11-1.335.232-2 .351l-.1.017c-.006-.021-.014-.038-.021-.058a.777.777 0 0 0-.045-.1.628.628 0 0 0-.165-.2q.216.011.43.013a7.926 7.926 0 0 0 1.767-.171zm1.927-.477c.053.018.11.036.172.054l.11.032q-.107.056-.208.12c-.067.042-.132.089-.2.136l-.089.064c-.029.022-.078.064-.117.1q-.3 0-.617.022c.058-.053.117-.1.177-.153l.02-.016a2.752 2.752 0 0 1 .631-.4l.117.04zm1.436.547h.012l.013.012c.013.012.021.026.032.038a.489.489 0 0 1 .073.107.385.385 0 0 1 .038.094c-.06-.019-.122-.036-.182-.053L18.557 9l-.134-.035-.106-.024c.058-.028.116-.055.175-.077s.091-.028.136-.041zm1.392.663a1.246 1.246 0 0 1-.083.108c-.026-.016-.053-.029-.079-.044h-.006l-.069-.038.046-.013c.078-.023.155-.047.232-.072a.471.471 0 0 1-.041.062zM4.081 8.366c.085.033.178.066.281.1l.038.011a2.532 2.532 0 0 0-.332.386l-.023.032-.013.019a4.362 4.362 0 0 0-.24.4l-.024.044c-.14-.042-.277-.088-.412-.136l.032-.063a3.505 3.505 0 0 1 .229-.378l.036-.049.06-.081a2.026 2.026 0 0 1 .3-.309zm3.476.765c.033-.026.066-.051.1-.073l.044.012.042.012c.057.018.112.037.167.057l.09.032a2.341 2.341 0 0 0-.3.3l-.014.016a3.32 3.32 0 0 0-.284.42h-.04q-.208 0-.417-.012a2.985 2.985 0 0 1 .343-.507 1.954 1.954 0 0 1 .252-.247zm1.4-.256q.131-.065.256-.135c.1-.054.191-.111.282-.171.064-.043.126-.088.187-.135a3.712 3.712 0 0 0 .339.177l.039.016a3.435 3.435 0 0 1-.482.328q-.16.091-.334.174l-.085.041c-.135.062-.276.12-.42.177L8.7 9.323l-.014-.011a1.345 1.345 0 0 0-.212-.13l-.1-.049c.119-.049.237-.1.352-.15.073-.033.143-.067.213-.1zm1.912-.046c.142.01.31.014.488.018h.033c-.019.022-.037.046-.057.067l-.043.042a2.491 2.491 0 0 1-.223.2 4 4 0 0 1-.747.455c-.116.056-.236.11-.361.162q-.418.045-.835.075h-.026l-.083.007V9.84l.085-.032a6.375 6.375 0 0 0 1.135-.571l.013-.008a3.315 3.315 0 0 0 .453-.362l.024-.024.027-.028.056.007c.019 0 .037.007.057.008zm-3.109.705c.022-.026.046-.049.07-.073a1.843 1.843 0 0 1 .242-.216l.041-.029.087.039.059.029c.056.028.108.057.157.087a2.34 2.34 0 0 0-.3.311v.006c-.057.071-.111.145-.161.221H7.502a2.783 2.783 0 0 1 .254-.374zm4.951-.523c-.024.028-.046.058-.073.085a2.61 2.61 0 0 1-.3.258c-.047.035-.093.07-.143.1h-.006l-.06.011c-.176.029-.352.056-.528.083l-.2.031a4.19 4.19 0 0 0 .452-.291c.047-.034.093-.069.138-.106s.1-.084.147-.128.106-.1.156-.155a1.828 1.828 0 0 1 .414.113zm-1.483.189a3.156 3.156 0 0 0 .244-.209c.045-.043.088-.088.13-.134.165.005.332.013.492.029-.013.015-.024.031-.038.046-.036.04-.073.078-.114.116a2.662 2.662 0 0 1-.269.224c-.085.062-.173.122-.267.18-.109.066-.226.128-.346.188-.214.031-.427.056-.64.083l-.1.013c.113-.053.223-.108.331-.166a4.183 4.183 0 0 0 .58-.37zm-2.439.646c0 .011.006.021.007.032h-.047l-.373.022h-.329c.038-.054.078-.106.119-.156l.043-.05a1.945 1.945 0 0 1 .224-.22l.068-.052c.03.022.057.044.083.067a.811.811 0 0 1 .069.071.513.513 0 0 1 .136.283zm4.082-.746a.4.4 0 0 1 .136.169.364.364 0 0 1 .019.045l-.382.065-.13.022-.049.008.037-.026.019-.014c.039-.029.077-.059.114-.089q.106-.086.2-.182l.013-.013zm-2.332-.28a2.581 2.581 0 0 1-.327.283c-.035.026-.071.053-.108.078l-.133.086a5.591 5.591 0 0 1-.818.408l-.168.066c0-.009 0-.019-.006-.027a.7.7 0 0 0-.119-.236c-.013-.017-.028-.032-.042-.049q.18-.073.356-.151l.136-.063c.134-.063.264-.129.391-.2.092-.052.182-.106.269-.164s.156-.108.23-.166a2.388 2.388 0 0 0 .247.076c.039.01.08.019.122.027l-.031.034zm9.642.131a.7.7 0 0 1-.049.336c-.122.042-.249.083-.379.12l-.1.028c-.111-.058-.225-.112-.342-.164-.037-.017-.073-.034-.112-.049l.207-.061a6.541 6.541 0 0 0 .764-.282.67.67 0 0 1 .011.072zm-12.642.073a2.2 2.2 0 0 0-.233.221c-.031.034-.059.069-.088.1a3.6 3.6 0 0 0-.36.545h-.022q-.226-.012-.452-.031h-.006a3.184 3.184 0 0 1 .311-.482l.019-.023.027-.032A1.965 1.965 0 0 1 7 9.066a1.649 1.649 0 0 1 .182-.128h.008c.083.018.166.037.248.058.033.007.066.018.1.027zm-.6-.138l.037.007h.009l.055.011c-.02.015-.037.033-.056.049a2.345 2.345 0 0 0-.332.34c-.013.016-.028.031-.04.049s-.019.021-.027.032c-.062.084-.118.171-.171.261-.043.073-.084.147-.124.22-.119-.011-.238-.024-.357-.04l-.1-.012a3.372 3.372 0 0 1 .293-.472l.046-.06.064-.076c.036-.041.073-.079.111-.117a1.711 1.711 0 0 1 .312-.244l.1.016.182.035zm10.9-.707l-.041.011c-.027-.019-.045-.037-.066-.055-.083-.072-.127-.137-.115-.185h.02l.283.056.09.018h.019l.2.039c-.1.03-.2.057-.3.084zM16.7 8.053a1.438 1.438 0 0 0 .159.089l.1.046a3.538 3.538 0 0 0-.67.471l-.02.018-.01.009-.138.122c-.044 0-.086.006-.131.011a.679.679 0 0 0-.01-.118.453.453 0 0 0-.114-.239l-.011-.011q.122-.107.246-.2a2.684 2.684 0 0 1 .474-.289 1.1 1.1 0 0 0 .124.094zm-1.459.588c-.063.016-.126.033-.19.047a7.509 7.509 0 0 1-1.562.165c-.171 0-.344 0-.519-.01a.882.882 0 0 0-.128-.058 1.277 1.277 0 0 0-.133-.04 3.12 3.12 0 0 0-.388-.064l-.19-.021c-.147-.016-.3-.033-.466-.059-.1-.016-.206-.036-.312-.062-.054-.013-.108-.027-.163-.043-.038-.011-.073-.024-.107-.038l-.024-.009c-.042-.017-.081-.035-.118-.055l.145.024h.01c.075.012.151.026.225.037.14.021.279.038.418.055.115.014.23.027.344.038s.219.02.328.027.243.013.364.018q.293.011.58 0h.129q.3-.012.6-.045c.142-.016.282-.038.422-.062.09-.016.181-.028.271-.047l.06-.015c.132-.029.263-.063.392-.1h.019l.04.018a.845.845 0 0 1 .293.206c-.11.035-.225.064-.341.094zm-.508-.475l.065.015.1.024.057.015.1.031c-.042.013-.085.024-.127.035-.063.018-.124.036-.188.052-.115.028-.233.051-.352.073q-.273.05-.555.08-.215.022-.434.033l-.134.006q-.266.009-.537 0c-.09 0-.18 0-.27-.009q-.208-.011-.418-.03c-.087-.008-.175-.018-.262-.028-.166-.019-.333-.04-.5-.066l-.151-.024H11.1c-.084-.014-.167-.026-.251-.042l-.037-.006a.9.9 0 0 1-.2-.183v-.006c-.012-.016-.023-.031-.033-.047a.577.577 0 0 1-.055-.111l.1.021c.138.027.277.052.415.076a11.276 11.276 0 0 0 1.725.172c.14 0 .279 0 .419-.005.242-.008.483-.024.725-.056l.076-.011c.08-.011.16-.028.24-.042.054-.01.109-.018.164-.029l.078.015c.084.011.174.027.266.047zm-8.664.581a2.2 2.2 0 0 0-.255.237l-.076.085c-.025.029-.071.085-.1.129l-.041.057a4.163 4.163 0 0 0-.282.461l-.09-.016q-.169-.032-.336-.066l.019-.034a3.4 3.4 0 0 1 .263-.419l.029-.04c.042-.054.085-.107.131-.157a1.9 1.9 0 0 1 .185-.173A1.694 1.694 0 0 1 5.67 8.7l.049.006.14.018zm-.611-.08h.062l-.028.033a2.292 2.292 0 0 0-.247.248c-.049.058-.1.117-.139.179l-.024.034a4.3 4.3 0 0 0-.276.459h-.014L4.72 9.6q-.177-.039-.35-.081l.007-.014q.083-.16.176-.307.043-.067.088-.131l.012-.016a2.247 2.247 0 0 1 .247-.286l.077-.073c.026-.024.064-.053.1-.078h.028l.06.008.255.035zM3.5 8.033a2.2 2.2 0 0 0-.2.185c-.056.059-.109.119-.158.183s-.073.1-.108.148a4.432 4.432 0 0 0-.26.437c-.129-.06-.254-.122-.374-.19a3.894 3.894 0 0 1 .252-.44 2.573 2.573 0 0 1 .184-.239c.046-.053.093-.1.143-.15a1.752 1.752 0 0 1 .238-.188l.008.008c.08.079.161.157.253.233l.017.013zM3.141 7.7a2.271 2.271 0 0 0-.366.353 2.931 2.931 0 0 0-.193.26 4.782 4.782 0 0 0-.253.438h-.007a4.145 4.145 0 0 1-.37-.242 3.806 3.806 0 0 1 .257-.444 2.4 2.4 0 0 1 .23-.289 1.742 1.742 0 0 1 .41-.328 3.046 3.046 0 0 1 .274.241zM20.39 9.943a1.047 1.047 0 0 0 .122-.141 1.279 1.279 0 0 0 .243-.81.047.047 0 0 0 0-.006.844.844 0 0 0-.034-.187c.019.009.04.017.059.024a15 15 0 0 1 1.661.592c.466.292.325.778-.246.833a2.561 2.561 0 0 0-.947.157c-.02-.014-.042-.027-.064-.04a2.43 2.43 0 0 0-.954-.3.809.809 0 0 0 .159-.123zm-.512-1.534a5.418 5.418 0 0 1-.655.25c-.1.032-.2.062-.306.09a.9.9 0 0 0-.091-.06l-.061-.034c-.048-.024-.1-.047-.153-.07l-.135-.055q.14-.039.277-.08c.089-.027.178-.055.265-.084.072-.024.142-.051.212-.077l.03-.011q.25.052.5.107zm-.815-.171l-.157.055c-.062.021-.125.04-.189.059q-.15.046-.307.087l-.1.024h-.005c-.064-.027-.13-.056-.2-.088s-.114-.056-.171-.088l-.027-.017q.251-.069.494-.148l.021-.008.06.012.461.091zm-2.575-.359l.018.018a3.118 3.118 0 0 0-.41.264l-.06.044q-.113.088-.221.183L15.8 8.4a1.268 1.268 0 0 0-.357-.171l-.064-.021c.067-.057.134-.115.2-.166.035-.026.072-.049.107-.072a2.362 2.362 0 0 1 .5-.266l.091.013.047.028a1 1 0 0 1 .164.132zm-.479-.2a2.98 2.98 0 0 0-.382.236c-.069.049-.138.1-.2.153l-.085.072c-.015.013-.031.024-.046.039l-.122-.04c-.065-.021-.131-.044-.2-.07l-.1-.04c.028-.024.057-.046.086-.069a3.144 3.144 0 0 1 .315-.222 2.354 2.354 0 0 1 .239-.126l.239.031.163.022zm-.657-.087q-.108.061-.21.131c-.073.049-.144.1-.213.155-.047.037-.094.075-.139.114l-.042-.019a1.59 1.59 0 0 1-.19-.105.765.765 0 0 1-.093-.07c.078-.058.159-.111.24-.16.058-.035.117-.068.177-.1l.346.039zm-2.485-.136a4.091 4.091 0 0 1-1.352-.083c.346 0 .695.005 1.046.016a2.65 2.65 0 0 1 .306.068zm-1.738-.084h.071a5.541 5.541 0 0 0 1.855.155.93.93 0 0 1 .191.127l.084.068a5.656 5.656 0 0 1-2.63-.209.788.788 0 0 1 .178-.083 1.3 1.3 0 0 1 .254-.058zm-3.409.15h.008c.03 0 .058.011.087.015a2.323 2.323 0 0 1-.339.333l-.149.115c-.049.037-.1.069-.159.1-.1.061-.2.12-.305.176l-.072.039q-.081.041-.165.079-.129.06-.265.116l-.1.043-.188.073-.081-.024q-.116-.034-.222-.073h-.01l-.073-.027.081-.037q.183-.089.359-.185c.049-.026.1-.053.142-.08l.031-.024.012-.008c.109-.066.214-.136.315-.209a3.007 3.007 0 0 0 .486-.434l.037-.044h.018c.201.017.39.034.552.056zm-.879-.073l.134.007a2.149 2.149 0 0 1-.23.247c-.049.046-.1.09-.155.134s-.092.07-.14.1c-.087.062-.178.122-.275.179l-.07.039-.049.027c-.089.049-.18.1-.275.144l-.039.02-.177.083-.024-.015a1.029 1.029 0 0 1-.241-.205l-.016-.018.129-.066.039-.025.109-.061a2.559 2.559 0 0 0 .744-.606c.173 0 .354 0 .535.012zm-.684-.01a1.591 1.591 0 0 1-.2.218 2.61 2.61 0 0 1-.46.332c-.084.049-.173.1-.265.141a.7.7 0 0 1-.045-.076.49.49 0 0 1-.047-.154c-.022-.176.082-.337.4-.4a3.683 3.683 0 0 1 .622-.055zm-3.413-.071l.01.006-.1.07a2.225 2.225 0 0 0-.3.281 2.8 2.8 0 0 0-.219.286 4.574 4.574 0 0 0-.258.442 3.376 3.376 0 0 1-.343-.3 3.766 3.766 0 0 1 .269-.46c.036-.052.073-.1.112-.149l.048-.056a1.848 1.848 0 0 1 .373-.333 2.412 2.412 0 0 1 .4.216zM2.22 7.1h.01a2.36 2.36 0 0 0-.4.415c-.026.034-.051.07-.075.106a4.463 4.463 0 0 0-.275.461 2.858 2.858 0 0 1-.278-.349c-.007-.01-.01-.018-.017-.027a2.251 2.251 0 0 1 .577-.717 3.269 3.269 0 0 1 .458.111zm-.6-.123a2.7 2.7 0 0 0-.484.65c-.32-.556.017-.692.484-.651zm12.32 5.556C8.97 14.091 1.709 11.87.42 8.7.063 7.826.182 7.236.7 7.018a1.87 1.87 0 0 0-.008.365 2.069 2.069 0 0 0 .236.822l.022.04a2.913 2.913 0 0 0 .256.4 5.486 5.486 0 0 0 1.272 1.139 11.851 11.851 0 0 0 1.294.753 16.119 16.119 0 0 0 3.449 1.257 16.87 16.87 0 0 0 3.183.462 14.659 14.659 0 0 0 2.577-.1c.347-.045.691-.1 1.029-.172a21.961 21.961 0 0 0 3.452-1.107l.676-.269A3.671 3.671 0 0 1 19 10.4a4.185 4.185 0 0 1 .821-.026 2.5 2.5 0 0 1 .895.21c-.09.011-.178.024-.266.037a39.776 39.776 0 0 0-6.506 1.911z" class="prefix__cls-1" data-name="Path 16891" transform="translate(0 -6.589)"/>
                    <path id="prefix__Path_16892" d="M36.291 24.337a8.63 8.63 0 0 0-3.193.583c-.44.147-.865.3-1.273.435-1.35.445-2.677.983-4.036 1.389a22.992 22.992 0 0 1-5.13 1.041c-1.643.093-3.911.049-5.206.828a1.331 1.331 0 0 0 .521 2.569c.9.592 2.513.088 4.267-.179a7.647 7.647 0 0 1 3.022.023l.472.118q.342.084.688.161c.346.077.694.147 1.043.2q.213.035.426.064.28.038.562.062l.089.007c.134.011.269.019.4.024l.191.005h.266q.216 0 .432-.016a7.316 7.316 0 0 0 .819-.1 6.551 6.551 0 0 0 1.6-.5c.046-.021.093-.039.139-.061.068-.033.138-.069.209-.106.054-.028.108-.058.164-.089l.026-.014c.1-.055.2-.114.3-.177h.006c.178-.11.358-.233.537-.371a6.17 6.17 0 0 0 .5-.424 5.583 5.583 0 0 0 .889-1.083c.088-.139.171-.284.25-.438.069-.137.135-.279.2-.428l.016-.044q.082-.208.149-.432c0-.007 0-.014.006-.021q.069-.229.122-.477v-.02c.023-.108.046-.215.064-.328l.021-.136c.028-.185.054-.356.091-.513a1.444 1.444 0 0 1 .586-.907.447.447 0 0 0 .2-.363c-.019-.135-.138-.265-.435-.282zm-2.085 4.032a10.852 10.852 0 0 0-.684 1.423c-.042.036-.087.071-.131.106s-.116.095-.176.14l-.041.029-.037.026.021-.075q.038-.127.081-.254c.022-.064.043-.128.067-.191v-.009c.077-.2.166-.407.263-.611q.07-.147.147-.293.142-.271.305-.545c.058-.1.119-.2.181-.293q.116-.184.241-.371l.017-.026v.035l-.012.163c-.009.115-.02.23-.033.344 0 .02 0 .04-.007.06-.066.114-.136.227-.202.342zm-4.733 2.508c-.006-.04-.01-.08-.014-.122s-.01-.073-.013-.11c-.009-.111-.012-.223-.013-.336v-.125c0-.147.012-.295.028-.446s.036-.3.061-.453c.012-.073.024-.147.04-.222 0-.018.006-.036.01-.054l.018-.088.026-.041c.1-.155.2-.307.318-.456l.018-.023.036-.045.029-.037c0 .022-.007.044-.01.067s0 .018 0 .027q-.032.2-.055.406c-.009.08-.019.161-.024.241 0 .054-.006.108-.009.162s-.007.111-.008.167a5.417 5.417 0 0 0 .041.9c0 .029.011.058.015.087s.012.069.018.1c.017.1.036.19.059.285l.036.136-.08.043c-.106.057-.22.111-.34.162l-.055.024c-.028.011-.054.024-.083.034a2.724 2.724 0 0 1-.048-.283zm5.734-3.552c-.035.1-.071.2-.112.293l-.015.033-.031-.016-.082-.043a1.777 1.777 0 0 1-.285-.189l-.012-.01c0-.033.005-.066.008-.1 0-.062.01-.124.017-.188 0-.029.009-.059.012-.089.04.024.079.051.121.073.073.04.147.077.224.11.057.024.114.049.173.071-.004.019-.011.037-.017.056zm-.548.247v-.049a2.365 2.365 0 0 0 .256.144c.042.021.085.042.128.061l-.006.013q-.075.169-.162.334a1.718 1.718 0 0 1-.161-.1c-.026-.019-.054-.036-.079-.056q.012-.171.021-.344zm-.536-.507c-.054.08-.108.159-.161.24a10.389 10.389 0 0 0-.647 1.133l-.049.109-.021.047-.13.293-.028.071c-.032.08-.065.16-.1.242-.009-.055-.02-.109-.032-.161l-.019-.081c-.014-.054-.029-.107-.045-.159l-.044-.139c.011-.04.021-.08.034-.12s.038-.1.058-.156q.06-.158.134-.313c.028-.059.055-.119.086-.178a6.085 6.085 0 0 1 .487-.757q.239-.322.528-.652l.024-.028.02-.023c.086-.03.167-.061.247-.093s.14-.055.2-.083l-.024.085-.073.093c-.07.092-.138.186-.206.28l-.079.108c-.05.083-.104.163-.158.242zm-2.567 3.47c-.111.017-.223.032-.339.044s-.217.021-.327.021h-.019l.008-.008c.047-.046.09-.092.133-.138q.087-.093.166-.187l.034-.041h.035c.174-.014.347-.031.516-.057.047-.007.093-.015.139-.024l.051-.009a3.3 3.3 0 0 0 .6-.169l.015-.007.1-.044c-.015.038-.029.075-.048.114l-.015.03c-.032.063-.068.128-.11.2v.006a3.325 3.325 0 0 1-.937.269zm-1.375.3l-.019.011-.024-.078-.027-.087c-.021-.073-.04-.148-.056-.223-.01-.043-.019-.086-.027-.13s-.019-.11-.026-.166c-.015-.112-.026-.226-.031-.342a4.926 4.926 0 0 1 .006-.549q.011-.179.034-.363c0-.035.007-.07.012-.106.012-.09.028-.182.043-.274l.022-.129a.076.076 0 0 1 0-.015l.04-.2q.117-.131.253-.257c.035-.033.069-.067.106-.1l.029-.023.04-.032c-.03.168-.056.335-.077.5-.007.054-.011.109-.017.164l-.016.15a5.7 5.7 0 0 0 .033 1.333c.009.061.02.122.032.183a.074.074 0 0 0 0 .014q.033.169.081.338c0 .017.009.035.014.052l-.012.011a3.187 3.187 0 0 1-.326.247c-.024.036-.053.052-.085.072zm-.723-2.235l-.061.088c-.131.035-.26.067-.389.095-.1.022-.206.042-.307.059a4.7 4.7 0 0 1-.622.066h-.289a2.816 2.816 0 0 1-.452-.06l.086-.073a4.817 4.817 0 0 1 .483-.358 3.824 3.824 0 0 0 .906.053h.057l.068-.005c.049 0 .1-.007.143-.011.136-.014.272-.034.408-.056l.145-.024c-.028.035-.054.07-.081.1s-.064.087-.1.13zm-.682 1.166l-.075.131c-.049.011-.1.024-.15.034l-.088.018q-.177.037-.351.066l-.112.023-.19.027a5.517 5.517 0 0 1-.851.049 3.8 3.8 0 0 1-.546-.054 3.774 3.774 0 0 1 .246-.436 4.255 4.255 0 0 0 .6.046 5.945 5.945 0 0 0 1.048-.1c.077-.013.154-.027.23-.042q.189-.038.378-.082l.049-.011-.058.107c-.048.08-.089.158-.13.227zm4.763-2.593a7.192 7.192 0 0 0-.391.621c-.044.08-.088.159-.128.24q-.081.163-.151.331c-.022.054-.042.108-.062.163l-.04-.122-.012-.037a3.042 3.042 0 0 1-.091-.344l.036-.069a7.3 7.3 0 0 1 .893-1.33c.087-.024.175-.049.266-.077.069-.021.136-.041.2-.063-.182.228-.359.456-.521.691zm-.528 2.16zm-.293.432c-.036.023-.075.044-.114.064s-.073.037-.11.054a2.533 2.533 0 0 1-.472.158l-.064.015c-.062.013-.124.026-.188.036-.158.026-.323.044-.493.057.024-.032.047-.064.07-.1l.049-.07c.038-.055.075-.11.109-.166l.039-.066.144-.015c.11-.013.22-.028.327-.049.055-.01.11-.021.164-.033l.042-.011c.072-.018.142-.038.212-.061a2.333 2.333 0 0 0 .3-.122l.042-.021c0 .041-.007.082-.013.123s-.009.07-.017.106-.018.065-.027.1zm-1.991.645l-.031.029q-.057-.163-.1-.329c0-.014-.005-.027-.008-.041-.016-.07-.032-.141-.044-.212a4.007 4.007 0 0 1-.05-.471v-.123a5.521 5.521 0 0 1 .04-.761c.011-.1.024-.2.04-.295q.036-.227.085-.463l.011-.05c.024-.018.047-.038.071-.055.1-.071.205-.136.312-.2l.046-.024q-.056.326-.088.653a6.172 6.172 0 0 0-.018 1.1c0 .058.009.116.015.174v.029c.011.1.029.193.046.29v.024c.017.088.037.176.059.264l-.024.034-.066.086-.013.017a3.243 3.243 0 0 1-.291.324zm1.363-3.407a8.718 8.718 0 0 0-.156 1.243v.03l-.175.429-.039.1h-.006l-.032.077-.094.218-.022.049-.013.027c0-.04-.009-.08-.012-.121-.01-.1-.015-.21-.017-.316q0-.2.009-.4.018-.28.063-.574c0-.012 0-.024.005-.035.03-.192.067-.389.111-.591l.049-.019q.159-.057.324-.108zm.684 2.262v.052l-.034.022a1.707 1.707 0 0 1-.3.15q-.1.039-.207.07l-.018.005c-.053.015-.108.028-.164.04a3.905 3.905 0 0 1-.393.062l-.075.009.04-.071.014-.026c.036-.067.071-.133.1-.2l.043-.095c.1-.013.2-.031.3-.051s.212-.049.315-.08c.026-.008.053-.014.08-.023a2.489 2.489 0 0 0 .263-.107l.019.1c.005.031.011.093.014.139zm-1.588.586c-.019-.065-.037-.13-.052-.2a.057.057 0 0 0 0-.012 3.392 3.392 0 0 1-.063-.358c-.007-.058-.014-.116-.019-.175 0-.017 0-.034-.006-.051-.01-.152-.011-.307-.007-.465a5.669 5.669 0 0 1 .049-.577q.041-.318.11-.654c.109-.057.22-.11.335-.159l.084-.034c-.037.2-.068.4-.093.593q-.015.115-.026.229-.018.185-.026.37t-.006.386c0 .065 0 .131.007.2s.009.157.017.235c0 .036.01.073.014.109l-.024.052c-.05.1-.1.2-.161.3l-.062.1-.069.105zm1.324-.829c-.052.021-.106.039-.161.057-.038.013-.073.029-.113.04s-.109.024-.164.037c-.081.018-.162.035-.248.049l.032-.073c.043-.1.083-.2.122-.3l.064-.015c.073-.015.144-.031.214-.051s.154-.045.229-.073c.052-.019.1-.043.152-.065l.013.042c.014.046.028.091.04.136l.028.111a1.808 1.808 0 0 1-.208.109zm-.046-.992q.022.1.049.188c.02.07.04.139.061.206l.032.1c-.035.019-.069.039-.106.056h-.01a2.213 2.213 0 0 1-.241.092c-.067.021-.137.04-.208.056l-.031.008.03-.077.009-.024.117-.313c.024-.062.047-.124.072-.184.054-.137.111-.271.174-.4.012.095.03.184.05.272zm.886-1.341l.11-.029a8.221 8.221 0 0 0-.815 1.261 1.829 1.829 0 0 1-.02-.239 1.879 1.879 0 0 1 .024-.344 2.233 2.233 0 0 1 .514-.525c.06-.042.121-.084.188-.124zm-.655.157l.024-.005.072-.016-.071.08a4 4 0 0 0-.622.99l-.088.2a8.541 8.541 0 0 1 .177-1.12l.068-.018q.218-.059.441-.107zm-3.015.757q.205-.066.415-.126l.184-.051.251-.067.059-.015.244-.062q-.113.073-.217.15l-.047.035-.082.062c-.1.078-.2.156-.285.235l-.029.027-.14.029c-.155.029-.307.052-.456.066a2.806 2.806 0 0 1-.645-.008l.079-.032q.327-.129.669-.239zm.132.55l-.029.031-.054.063c-.075.015-.15.028-.225.041-.127.021-.253.04-.377.053a4.162 4.162 0 0 1-.632.021c-.059 0-.118-.005-.176-.011-.085-.009-.17-.021-.252-.038l.119-.07c.188-.107.382-.2.581-.293a3.177 3.177 0 0 0 .794.011c.153-.015.306-.038.459-.066l.049-.009-.055.055q-.108.107-.2.213zm-3.629 2.465a4.254 4.254 0 0 1 .16-.422 4.9 4.9 0 0 0 .55.036 6.583 6.583 0 0 0 1-.075l.187-.03q.187-.031.374-.069l.178-.037a3.367 3.367 0 0 1-.208.3l-.006.008q-.053.067-.111.13c-.1.027-.2.053-.3.076-.131.031-.261.058-.389.08a3.658 3.658 0 0 1-1.436.008zm2.843-1.311l-.1.024-.065.016q-.154.037-.307.068l-.113.022-.073.013a6.06 6.06 0 0 1-.6.078q-.207.016-.408.012a3.31 3.31 0 0 1-.6-.062q.047-.065.1-.128a3.89 3.89 0 0 1 .288-.323l.049-.053a3.673 3.673 0 0 0 .559.052h.163a4.954 4.954 0 0 0 .606-.051l.117-.016c.055-.009.111-.02.166-.031l.189-.037c.063-.013.128-.028.192-.043l.129-.032-.036.059-.035.056c-.084.132-.155.258-.222.381zm1.023 1.914c.095-.057.187-.115.273-.173h.079q.142 0 .283.006h.186c.19 0 .378-.014.563-.035-.159.062-.318.12-.479.171-.093.03-.187.057-.281.083h-.1c-.168 0-.342 0-.519-.013h-.064c.018-.009.037-.022.058-.035zm2.105-.523l-.057.028q-.094.047-.189.092a3.744 3.744 0 0 1-.909.143c-.1 0-.2.006-.3.006s-.175 0-.264-.005c.085-.062.166-.125.241-.189l.082-.072.2-.011.108-.008.129-.01.2-.022h.016q.213-.026.42-.066a4.024 4.024 0 0 0 .527-.139c-.035.049-.077.1-.118.147s-.053.072-.087.108zm.8-.554q.029-.131.044-.252c0-.035.01-.07.013-.1s.006-.086.007-.128v-.209a.2.2 0 0 0 0-.032l.016-.054c.009-.031.017-.063.027-.094.036-.114.076-.226.119-.338.035-.091.07-.183.109-.273.019-.045.041-.089.061-.134a8.261 8.261 0 0 1 .6-1.083l.059-.087c.046-.069.093-.137.141-.206s.09-.127.137-.191l.061-.083c.044-.06.088-.12.134-.18l.1-.136c-.011.047-.022.094-.031.139s-.018.1-.026.149v.006l-.02.135q-.015.115-.024.228l-.042.067-.07.11-.058.091c-.057.09-.112.181-.167.272l-.14.235c-.046.079-.108.188-.16.283q-.2.359-.369.731c-.049.105-.094.212-.139.318s-.082.2-.12.3l-.059.163c-.015.042-.031.083-.045.125-.024.071-.043.143-.065.214l-.01.031c-.035.024-.069.051-.1.075l.017-.087zm1.592-1.572a3.558 3.558 0 0 0 .074-.449c0-.014 0-.028.005-.042s0-.031 0-.046l.032.02c.056.034.114.067.173.1l-.013.024c-.077.14-.159.277-.247.41-.017.024-.031.052-.049.076.009-.03.013-.06.02-.09zm.715-1.4c0 .007-.005.014-.008.021a2.532 2.532 0 0 1-.238-.108c-.045-.024-.086-.049-.128-.076a1.7 1.7 0 0 1-.161-.115v-.03c.006-.034.011-.068.018-.1.012-.061.027-.124.042-.187l.022.014a2.528 2.528 0 0 0 .286.153c.082.037.168.07.254.1-.027.111-.056.223-.092.334zm.125-.47c0 .02-.007.041-.012.061-.076-.029-.149-.06-.22-.094a1.922 1.922 0 0 1-.339-.207c.008-.029.021-.06.03-.09.028-.091.055-.182.093-.278l.019-.013a2.589 2.589 0 0 0 .412.212c.027.011.054.024.081.034-.015.124-.038.249-.064.374zm.072-.457c-.029-.012-.056-.026-.084-.039q-.1-.046-.2-.1c-.045-.027-.09-.054-.132-.083l.013-.009a1.84 1.84 0 0 0 .192-.159 1.419 1.419 0 0 0 .167-.2c.02-.027.041-.053.058-.081v.117a3.831 3.831 0 0 1-.02.551zm-9.375 4.734c.017-.072.038-.142.058-.212a4.453 4.453 0 0 0 1.443-.04q.156-.027.311-.061l.085-.019.175-.041-.028.024a2.04 2.04 0 0 1-.165.129 2.228 2.228 0 0 1-.428.234 3.241 3.241 0 0 1-.645.19c-.268-.065-.536-.135-.806-.201zm1.807.422q-.2-.034-.391-.076c.07-.033.133-.07.2-.106s.153-.09.223-.137c.046-.031.094-.06.137-.092l-.03.163c-.015.088-.028.176-.04.264l-.1-.015zm.174.027c.016-.1.033-.2.053-.293.015-.077.032-.155.049-.233.079-.065.153-.131.223-.2.044-.043.087-.086.128-.131-.028.161-.052.322-.073.484-.017.136-.034.272-.044.408l-.043.008c-.1-.012-.193-.028-.29-.043zm.521 0l-.117.022c.012-.136.03-.274.051-.415.024-.161.053-.325.087-.493l.009-.04.013-.062q.124-.15.233-.308.062-.09.122-.183c-.017.115-.032.229-.045.344-.007.06-.011.121-.017.181s-.007.1-.01.157c-.007.108-.013.216-.015.325 0 .133 0 .266.008.4q-.154.04-.321.074zm.527-.129c-.039.011-.076.024-.116.034l-.028.007a5.135 5.135 0 0 1 .022-.881c.018-.164.042-.332.071-.5v-.027l.034-.167q.085-.141.168-.285l.086-.148.049-.083.073-.122c-.01.061-.02.122-.028.183q-.024.18-.042.36c0 .042-.007.083-.01.125v.017c-.007.092-.012.184-.015.276 0 .068-.006.136-.006.2 0 .128.005.257.014.385 0 .036.007.071.01.107.012.137.03.274.054.41q-.165.058-.341.11zm.614.172l-.16.018c.065-.032.122-.065.184-.1l.073-.04.017-.009.2.014q.132.008.264.013c-.094.021-.188.04-.281.056l-.1.015-.09.014-.1.016zm4.309-2.292a3.7 3.7 0 0 1-.21.335c-.065.065-.133.126-.2.186a9.333 9.333 0 0 1 .648-1.289l.105-.171c-.013.069-.028.139-.046.209a2.893 2.893 0 0 1-.153.444c-.041.092-.09.188-.144.286z" class="prefix__cls-1" data-name="Path 16892" transform="translate(-12.559 -19.996)"/>
                </g>
            </g>
        </g>
    </g>
</svg>
