<svg xmlns="http://www.w3.org/2000/svg" width="187.45" height="52.672" viewBox="0 0 187.45 52.672">
    <defs>
        <style>
            .prefix__cls-1{fill:#585077}
        </style>
    </defs>
    <g id="prefix__Group_2043" data-name="Group 2043" transform="translate(-279.55 -242.627)">
        <g id="prefix__Group_2042" data-name="Group 2042" transform="translate(279.55 242.627)">
            <g id="prefix__AIQ_final_logo" data-name="AIQ final logo">
                <g id="prefix__Group_298" data-name="Group 298">
                    <path id="prefix__Path_262" d="M176.287 150.238a17.421 17.421 0 0 1-2.447-4.545l-14.581-35.937h-4.61l-13.187 32.306a23.893 23.893 0 0 1-3.771 6.876 9.3 9.3 0 0 1-4.555 2.787v1.115H146v-1.116a4.441 4.441 0 0 1-2.663-1.286 3.755 3.755 0 0 1-.91-2.63 6.922 6.922 0 0 1 .159-1.4 11.16 11.16 0 0 1 .484-1.63l2.287-5.632h18.013l2.895 7.519q.107.257.286.715a7.447 7.447 0 0 1 .608 2.173 1.764 1.764 0 0 1-.7 1.388 3.825 3.825 0 0 1-1.839.786v1.115h14.257l-.036-1.115a3.586 3.586 0 0 1-2.554-1.489zm-30.071-13.151l8.505-20.842 7.9 20.842z" class="prefix__cls-1" data-name="Path 262" transform="translate(-133.136 -109.756)"/>
                    <path id="prefix__Path_263" d="M306.46 114.1a2.966 2.966 0 0 1 2.573 1.258 7.543 7.543 0 0 1 .786 3.974v29.561a7.45 7.45 0 0 1-.769 3.9 3.031 3.031 0 0 1-2.59 1.271v1.086h14.33v-1.11a3 3 0 0 1-2.592-1.215 7.421 7.421 0 0 1-.767-3.931v-29.561a7.521 7.521 0 0 1 .786-4 2.994 2.994 0 0 1 2.573-1.229v-1.115h-14.33z" class="prefix__cls-1" data-name="Path 263" transform="translate(-257.358 -112.071)"/>
                    <path id="prefix__Path_264" d="M393 152.054q-.715.071-1.751.071-7.9 0-11.7-4.946t-3.8-15.238q0-9.949 4.038-15.281t11.543-5.332q7.826 0 11.7 4.9T406.9 131q0 7.719-1.627 12.222a12.063 12.063 0 0 1-5.108 6.554l1.388 1.659c.137.144.05.03.236.235a25.884 25.884 0 0 0 9.792-8.62 20.732 20.732 0 0 0 1.053-21.185 23.912 23.912 0 0 0-6.949-7.962 19.943 19.943 0 0 0-6.361-3.045 27.285 27.285 0 0 0-7.719-1.1 26.525 26.525 0 0 0-8.167 1.258 21.671 21.671 0 0 0-6.878 3.6 24.09 24.09 0 0 0-6.737 7.777 20.154 20.154 0 0 0-2.2 9.434 22.423 22.423 0 0 0 2.109 9.735 20.167 20.167 0 0 0 6.075 7.476 21.59 21.59 0 0 0 6.912 3.588 29.008 29.008 0 0 0 8.524 1.158q1.179 0 2.2-.085a14.237 14.237 0 0 0 1.82-.269c-.324-.484-.67-1.02-1.015-1.59a8.015 8.015 0 0 1-1.248.214z" class="prefix__cls-1" data-name="Path 264" transform="translate(-301.197 -109.755)"/>
                </g>
                <path id="prefix__Path_265" d="M452.906 242.261a5.847 5.847 0 0 1-2.1 1.3 7.76 7.76 0 0 1-2.735.373 9.093 9.093 0 0 1-4.838-1.28 19.881 19.881 0 0 1-4.761-4.663l-.038-.041-2.055-2.394-.517-.614a17.226 17.226 0 0 0-4.7-4.219 12.573 12.573 0 0 0-6.476-1.843 11.424 11.424 0 0 0-3.41.5 17.679 17.679 0 0 0-3.637 1.691l.666.85a7.084 7.084 0 0 1 1.489-.669A5.605 5.605 0 0 1 421.3 231a8.194 8.194 0 0 1 4.806 1.979 17.645 17.645 0 0 1 4.325 5.2 45.024 45.024 0 0 0 2.81 4.1l.057.078a15.633 15.633 0 0 0 3.645 3.47 11.622 11.622 0 0 0 6.59 1.981 12.576 12.576 0 0 0 5.541-1.28 13.006 13.006 0 0 0 4.515-3.6z" data-name="Path 265" transform="translate(-337.038 -195.133)" style="fill:#d8cdba"/>
            </g>
        </g>
        <text id="prefix__Pros" transform="translate(404 283)" style="font-size:33px;font-family:BigCaslon-Medium,Big Caslon;font-weight:500;fill:#585077">
            <tspan x="0" y="0">Pros</tspan>
        </text>
    </g>
</svg>
