<svg xmlns="http://www.w3.org/2000/svg" width="78.465" height="44.268" viewBox="0 0 78.465 44.268">
    <defs>
        <style>
            .prefix__cls-1{fill:none;stroke:#585077;stroke-linecap:round;stroke-linejoin:round;stroke-miterlimit:10;stroke-width:2px}.prefix__cls-2{fill:#d8cdba}
        </style>
    </defs>
    <g id="prefix__Group_1697" data-name="Group 1697" transform="translate(1.303 1.303)">
        <path id="prefix__Path_14361" d="M2744.954 433.179c-8.746 5.831-15.219-3.79-15.219-3.79-3.091-4.2-5.306.117-5.306.117-1.633 3.965-3.965 3.557-5.364 2.915a1.621 1.621 0 0 1-.817-1.924l1.05-3.557a5.436 5.436 0 0 1 3.09-3.5l3.965-1.749c1.4-.641 2.682-.466 4.432-.117l10.262 2.449z" class="prefix__cls-1" data-name="Path 14361" transform="translate(-2688.745 -410.206)"/>
        <path id="prefix__Path_14362" d="M2759.962 446.773l-6.764 2.157-4.2-5.889s4.956 2.041 8.8-1.341z" class="prefix__cls-1" data-name="Path 14362" transform="translate(-2701.595 -418.726)"/>
        <path id="prefix__Path_14363" d="M2690.147 417.6l7.7 3.265-6.822 15.86-7.522-2.915" class="prefix__cls-1" data-name="Path 14363" transform="translate(-2674.286 -408.679)"/>
        <path id="prefix__Path_14364" d="M2765.039 420.5l-7.639 3.207 6.764 15.918 7.521-2.915" class="prefix__cls-1" data-name="Path 14364" transform="translate(-2705.097 -409.888)"/>
        <path id="prefix__Path_14365" d="M2743.973 443.9l5.831 7.289a2.037 2.037 0 0 1 .35 1.983 2.344 2.344 0 0 1-3.965.816l-7.989-8.513" class="prefix__cls-1" data-name="Path 14365" transform="translate(-2697.093 -419.644)"/>
        <path id="prefix__Path_14366" d="M2732.1 453.6l6.706 7.055a3.468 3.468 0 0 0 5.831-1.283c0-.058 0-.058.058-.117" class="prefix__cls-1" data-name="Path 14366" transform="translate(-2694.55 -423.688)"/>
        <path id="prefix__Path_14367" d="M2726.5 459.2l5.6 6.181a3.549 3.549 0 0 0 2.391 1.224 3.8 3.8 0 0 0 3.5-2.157" class="prefix__cls-1" data-name="Path 14367" transform="translate(-2692.216 -426.022)"/>
        <path id="prefix__Path_14369" d="M2698.4 445.6a136.773 136.773 0 0 1 16.094 13.528l2.624 2.507a2.284 2.284 0 0 0 3.848-1.225v-.058" class="prefix__cls-1" data-name="Path 14369" transform="translate(-2680.499 -420.352)"/>
        <path id="prefix__Path_14370" d="M2705.185 451.3l-.7.758a1.833 1.833 0 0 0 .175 2.566 1.922 1.922 0 0 0 2.682-.233l.642-.758" class="prefix__cls-1" data-name="Path 14370" transform="translate(-2682.853 -422.729)"/>
        <path id="prefix__Path_14371" d="M2713.308 458.415l-1.516 1.633a2.189 2.189 0 0 1-3.032.175 2.207 2.207 0 0 1-.233-3.09l1.4-1.633" class="prefix__cls-1" data-name="Path 14371" transform="translate(-2684.503 -424.48)"/>
        <path id="prefix__Path_14372" d="M2715.979 460.5l-.991 1.05a2.2 2.2 0 0 0 .116 3.09 2.2 2.2 0 0 0 3.091-.117l.991-1.108" class="prefix__cls-1" data-name="Path 14372" transform="translate(-2687.175 -426.564)"/>
        <path id="prefix__Path_14373" d="M2724.781 468.541l-.525.525a2.1 2.1 0 0 1-2.915.058 2.041 2.041 0 0 1-.058-2.916l.408-.408" class="prefix__cls-1" data-name="Path 14373" transform="translate(-2689.796 -428.774)"/>
        <path id="prefix__Path_14374" d="M2667.7 433.029l6.006 2.332 10.729-26.239-16.735-6.822" class="prefix__cls-1" data-name="Path 14374" transform="translate(-2667.7 -402.3)"/>
        <path id="prefix__Path_14375" d="M2785.793 435.871l-6.006 2.391L2769 411.964l16.793-6.764" class="prefix__cls-1" data-name="Path 14375" transform="translate(-2709.933 -403.509)"/>
        <path id="prefix__Path_14376" d="M2675 411.8a22.008 22.008 0 0 1 2.216 11.72l-.525 6.531 6.181-15.044z" class="prefix__cls-2" data-name="Path 14376" transform="translate(-2670.743 -406.26)"/>
        <path id="prefix__Path_14377" d="M2784.572 413.7a22.012 22.012 0 0 0-2.216 11.72l.525 6.531-6.181-15.044z" class="prefix__cls-2" data-name="Path 14377" transform="translate(-2713.144 -407.053)"/>
    </g>
</svg>
