<svg xmlns="http://www.w3.org/2000/svg" width="176.56" height="50.073" viewBox="0 0 176.56 50.073">
    <defs>
        <style>
            .cls-1{fill:#ff8000;stroke:#e1c14b;stroke-miterlimit:10;stroke-width:49.353px}.cls-2{fill:#342e49}.cls-3{fill:#d8cdba}
        </style>
    </defs>
    <g id="Group_300" data-name="Group 300" transform="translate(-267.139 -38.465)">
        <g id="LOGO" transform="translate(393.907 38.465)">
            <g id="Group_1" data-name="Group 1">
                <path id="Line_1" d="M0 0" class="cls-1" data-name="Line 1" transform="translate(8.013 16.249)"/>
                <path id="Path_1" d="M497.452 1611.708c.332-.3 8.262-7.416 14.41-12.936a1.817 1.817 0 0 0 .336-2.371 1.755 1.755 0 0 0-2.564-.34l-12.513 10.487c-3.173 2.955-5.82 5.8-5.82 10.388v19.305a1.282 1.282 0 0 0 .624 1.106 1.3 1.3 0 0 0 1.28.055l6.472-3.275a5.727 5.727 0 0 0 3.161-5.14v-12.664a2.652 2.652 0 0 0-2.331-2.683 2.559 2.559 0 0 0-2.778 2.292 2.944 2.944 0 0 0-.016.265v12.118a1.17 1.17 0 0 1-1.134 1.17 1.174 1.174 0 0 1-1.209-1.17v-12.122a5.888 5.888 0 0 1 2.082-4.485z" class="cls-2" data-name="Path 1" transform="translate(-491.3 -1595.653)"/>
                <path id="Path_2" d="M1230.037 1611.708c-.332-.3-8.262-7.416-14.41-12.936a1.817 1.817 0 0 1-.336-2.371 1.756 1.756 0 0 1 2.564-.34l12.513 10.487c3.173 2.955 5.82 5.8 5.82 10.388v19.305a1.281 1.281 0 0 1-.624 1.106 1.3 1.3 0 0 1-1.28.055l-6.472-3.275a5.726 5.726 0 0 1-3.161-5.14v-12.664a2.652 2.652 0 0 1 2.331-2.683 2.559 2.559 0 0 1 2.778 2.292c.008.087.016.178.016.265v12.118a1.17 1.17 0 0 0 1.134 1.17 1.174 1.174 0 0 0 1.209-1.17v-12.122a5.874 5.874 0 0 0-2.082-4.485z" class="cls-2" data-name="Path 2" transform="translate(-1186.397 -1595.653)"/>
                <path id="Rectangle_1" d="M0 0h4.876v4.876H0z" class="cls-3" data-name="Rectangle 1" transform="translate(18.495 25.412)"/>
                <path id="Rectangle_2" d="M0 0h4.876v4.876H0z" class="cls-3" data-name="Rectangle 2" transform="translate(26.39 25.412)"/>
                <path id="Rectangle_3" d="M0 0h4.876v4.876H0z" class="cls-3" data-name="Rectangle 3" transform="translate(18.495 17.683)"/>
                <path id="Rectangle_4" d="M0 0h4.876v4.876H0z" class="cls-3" data-name="Rectangle 4" transform="translate(26.39 17.683)"/>
            </g>
        </g>
        <g id="AIQ_final_logo" data-name="AIQ final logo" transform="translate(267.139 38.465)">
            <g id="Group_298" data-name="Group 298">
                <path id="Path_262" d="M174.157 148.241a16.561 16.561 0 0 1-2.326-4.321l-13.861-34.164h-4.382l-12.536 30.712a22.715 22.715 0 0 1-3.585 6.532 8.841 8.841 0 0 1-4.331 2.65v1.06h12.23v-1.061a4.222 4.222 0 0 1-2.532-1.223 3.57 3.57 0 0 1-.865-2.5 6.58 6.58 0 0 1 .152-1.332 10.61 10.61 0 0 1 .46-1.549l2.174-5.354h17.122l2.752 7.148q.1.245.272.68a7.078 7.078 0 0 1 .578 2.065 1.677 1.677 0 0 1-.664 1.32 3.636 3.636 0 0 1-1.748.747v1.06h13.554l-.034-1.06a3.409 3.409 0 0 1-2.43-1.41zm-28.587-12.5l8.086-19.813 7.508 19.813z" class="cls-2" data-name="Path 262" transform="translate(-133.136 -109.756)"/>
                <path id="Path_263" d="M306.46 114.046a2.82 2.82 0 0 1 2.446 1.2 7.17 7.17 0 0 1 .747 3.778v28.1a7.083 7.083 0 0 1-.731 3.71 2.882 2.882 0 0 1-2.462 1.209v1.033h13.623v-1.06a2.851 2.851 0 0 1-2.464-1.155 7.054 7.054 0 0 1-.729-3.737v-28.1a7.15 7.15 0 0 1 .747-3.8 2.846 2.846 0 0 1 2.446-1.169v-1.06H306.46z" class="cls-2" data-name="Path 263" transform="translate(-259.781 -112.116)"/>
                <path id="Path_264" d="M391.75 149.966q-.68.068-1.665.068-7.508 0-11.127-4.7t-3.617-14.486q0-9.458 3.839-14.527t10.973-5.069q7.44 0 11.125 4.661t3.687 14.037a35.2 35.2 0 0 1-1.547 11.619 11.467 11.467 0 0 1-4.856 6.231l1.32 1.577c.131.137.047.028.225.224a24.606 24.606 0 0 0 9.309-8.194 19.708 19.708 0 0 0 1-20.139 22.73 22.73 0 0 0-6.607-7.569 18.957 18.957 0 0 0-6.047-2.894 25.939 25.939 0 0 0-7.338-1.047 25.215 25.215 0 0 0-7.764 1.2 20.6 20.6 0 0 0-6.539 3.424 22.9 22.9 0 0 0-6.4 7.393 19.159 19.159 0 0 0-2.089 8.968 21.315 21.315 0 0 0 2 9.254 19.171 19.171 0 0 0 5.775 7.107 20.523 20.523 0 0 0 6.571 3.411 27.576 27.576 0 0 0 8.1 1.1q1.121 0 2.088-.081a13.522 13.522 0 0 0 1.73-.255c-.308-.46-.637-.97-.965-1.511a7.619 7.619 0 0 1-1.181.198z" class="cls-2" data-name="Path 264" transform="translate(-304.475 -109.755)"/>
            </g>
            <path id="Path_265" d="M451.166 241.6a5.558 5.558 0 0 1-2 1.237 7.378 7.378 0 0 1-2.6.354 8.645 8.645 0 0 1-4.6-1.217 18.9 18.9 0 0 1-4.526-4.432l-.036-.039-1.953-2.276-.492-.584a16.375 16.375 0 0 0-4.471-4.011 11.953 11.953 0 0 0-6.156-1.752 10.863 10.863 0 0 0-3.242.478 16.806 16.806 0 0 0-3.457 1.608l.633.808a6.734 6.734 0 0 1 1.416-.636 5.328 5.328 0 0 1 1.439-.244 7.789 7.789 0 0 1 4.568 1.881 16.774 16.774 0 0 1 4.111 4.939 42.783 42.783 0 0 0 2.672 3.9l.054.074a14.861 14.861 0 0 0 3.465 3.3 11.049 11.049 0 0 0 6.265 1.883 11.956 11.956 0 0 0 5.268-1.217 12.365 12.365 0 0 0 4.292-3.418z" class="cls-3" data-name="Path 265" transform="translate(-341.015 -196.798)"/>
        </g>
    </g>
</svg>
