<svg xmlns="http://www.w3.org/2000/svg" id="password-4" width="71.215" height="79.128" viewBox="0 0 71.215 79.128">
    <defs>
        <style>
            .cls-1{fill:#585077}.cls-2{fill:#d8cdba}
        </style>
    </defs>
    <path id="Path_10711" d="M3.957 79.128h63.3a3.956 3.956 0 0 0 3.957-3.957V59.346a3.957 3.957 0 0 0-3.957-3.957H44.489l3.086-2.306a31.206 31.206 0 0 0 13.09-25.388V6.594a1.319 1.319 0 0 0-.73-1.18A59.577 59.577 0 0 0 35.607 0a59.582 59.582 0 0 0-24.328 5.414 1.32 1.32 0 0 0-.729 1.18v21.1a31.207 31.207 0 0 0 13.086 25.389l3.087 2.306H3.957A3.957 3.957 0 0 0 0 59.346v15.825a3.956 3.956 0 0 0 3.957 3.957zm9.231-51.433V7.437a58.444 58.444 0 0 1 22.419-4.8 58.44 58.44 0 0 1 22.419 4.8v20.258A28.622 28.622 0 0 1 46 50.97l-9.6 7.17a1.332 1.332 0 0 1-1.582 0l-9.6-7.17a28.618 28.618 0 0 1-12.03-23.275zM2.638 59.346a1.319 1.319 0 0 1 1.319-1.319h26.3l2.98 2.226a3.984 3.984 0 0 0 4.748 0l2.976-2.226h26.3a1.319 1.319 0 0 1 1.319 1.319v15.825a1.319 1.319 0 0 1-1.319 1.319H3.957a1.319 1.319 0 0 1-1.319-1.319zm0 0" class="cls-1" data-name="Path 10711"/>
    <path id="Path_10712" d="M35.081 399.089l3.348.837-2.764 3.686a1.319 1.319 0 1 0 2.11 1.582l2.9-3.868 2.9 3.868a1.319 1.319 0 0 0 2.11-1.582l-2.769-3.693 3.348-.837a1.319 1.319 0 1 0-.641-2.558l-3.631.915v-3.586a1.319 1.319 0 0 0-2.638 0v3.586l-3.635-.909a1.319 1.319 0 1 0-.641 2.558zm0 0" class="cls-2" data-name="Path 10712" transform="translate(-28.807 -331.87)"/>
    <path id="Path_10713" d="M137.579 399.089l3.349.837-2.77 3.693a1.319 1.319 0 0 0 2.11 1.582l2.907-3.875 2.9 3.868a1.319 1.319 0 1 0 2.11-1.582l-2.769-3.693 3.348-.837a1.319 1.319 0 1 0-.641-2.558l-3.631.915v-3.586a1.319 1.319 0 0 0-2.638 0v3.586l-3.636-.909a1.319 1.319 0 0 0-.641 2.558zm0 0" class="cls-2" data-name="Path 10713" transform="translate(-115.48 -331.87)"/>
    <path id="Path_10714" d="M239.981 399.089l3.348.837-2.769 3.693a1.319 1.319 0 0 0 2.11 1.582l2.907-3.875 2.9 3.868a1.319 1.319 0 0 0 2.11-1.582l-2.77-3.693 3.349-.837a1.319 1.319 0 1 0-.641-2.558l-3.631.915v-3.586a1.319 1.319 0 0 0-2.638 0v3.586l-3.636-.909a1.319 1.319 0 0 0-.641 2.558zm0 0" class="cls-2" data-name="Path 10714" transform="translate(-202.056 -331.87)"/>
    <path id="Path_10715" d="M342.281 399.089l3.349.837-2.77 3.693a1.319 1.319 0 0 0 2.11 1.582l2.907-3.875 2.9 3.868a1.319 1.319 0 1 0 2.11-1.582l-2.769-3.693 3.348-.837a1.319 1.319 0 0 0-.641-2.558l-3.631.915v-3.586a1.319 1.319 0 0 0-2.638 0v3.586l-3.635-.909a1.319 1.319 0 1 0-.641 2.558zm0 0" class="cls-2" data-name="Path 10715" transform="translate(-288.531 -331.87)"/>
    <path id="Path_10716" d="M124.377 81.83l6.508-4.341c7.35-5.492 11.078-12.5 11.078-20.837V39.508a1.317 1.317 0 0 0-.791-1.21 46.569 46.569 0 0 0-37.974 0 1.319 1.319 0 0 0-.8 1.21v17.144c0 8.335 3.728 15.345 11.078 20.837l.059.041 6.449 4.3a3.945 3.945 0 0 0 4.391 0zm-9.348-6.474c-6.631-4.965-9.993-11.257-9.993-18.7V40.383a43.6 43.6 0 0 1 34.289 0v16.27c0 7.458-3.372 13.758-9.963 18.685l-6.447 4.3a1.318 1.318 0 0 1-1.466 0zm0 0" class="cls-1" data-name="Path 10716" transform="translate(-86.573 -28.958)"/>
    <path id="Path_10717" d="M189.131 122.18v-7.913a3.955 3.955 0 0 0-2.638-3.713v-1.562a6.594 6.594 0 1 0-13.188 0v1.562a3.955 3.955 0 0 0-2.638 3.713v7.913a3.956 3.956 0 0 0 3.956 3.957h10.551a3.956 3.956 0 0 0 3.957-3.957zm-13.188-13.188a3.956 3.956 0 1 1 7.913 0v1.319h-7.913zm-2.638 13.188v-7.913a1.319 1.319 0 0 1 1.318-1.318h10.551a1.319 1.319 0 0 1 1.318 1.318v7.913a1.319 1.319 0 0 1-1.318 1.319h-10.55a1.319 1.319 0 0 1-1.318-1.319zm0 0" class="cls-1" data-name="Path 10717" transform="translate(-144.292 -86.573)"/>
    <path id="Path_10718" d="M223.186 187.734a1.319 1.319 0 0 0-1.318 1.318v2.638a1.319 1.319 0 1 0 2.638 0v-2.638a1.319 1.319 0 0 0-1.32-1.318zm0 0" class="cls-2" data-name="Path 10718" transform="translate(-187.579 -158.721)"/>
</svg>
