<svg xmlns="http://www.w3.org/2000/svg" width="81.09" height="40.978" viewBox="0 0 81.09 40.978">
    <defs>
        <style>
            .prefix__cls-1{fill:#edf4fc}
        </style>
    </defs>
    <g id="prefix__Layer_22" transform="translate(67.152 -46.143)">
        <g id="prefix__Group_1872" data-name="Group 1872">
            <g id="prefix__Group_1870" data-name="Group 1870" transform="translate(-61.269 66.085)">
                <path id="prefix__Path_16809" d="M72.293 142.4a9.242 9.242 0 0 0-3.632-3.733 10.4 10.4 0 0 0-10.292 0 9.054 9.054 0 0 0-3.632 3.784 11.863 11.863 0 0 0 0 10.746 10.063 10.063 0 0 0 3.632 3.784 10.4 10.4 0 0 0 10.292 0 10.3 10.3 0 0 0 3.632-3.733 11.767 11.767 0 0 0 0-10.846zm-4.036 8.677a5.025 5.025 0 0 1-4.742 2.775 6.013 6.013 0 0 1-2.825-.706 5.046 5.046 0 0 1-1.917-2.068 7.954 7.954 0 0 1 0-6.609 5.046 5.046 0 0 1 1.917-2.068 5.911 5.911 0 0 1 5.65 0 5.046 5.046 0 0 1 1.917 2.068 7.593 7.593 0 0 1 0 6.604z" class="prefix__cls-1" data-name="Path 16809" transform="translate(-53.45 -137.3)"/>
                <path id="prefix__Path_16810" d="M106.852 137.8H96.51a1.12 1.12 0 0 0-1.11 1.11v18.313a1.12 1.12 0 0 0 1.11 1.11h2.371a1.12 1.12 0 0 0 1.11-1.11v-7.113h5.7A1.12 1.12 0 0 0 106.8 149v-1.867a1.12 1.12 0 0 0-1.11-1.11h-5.7v-4.137h6.91a1.12 1.12 0 0 0 1.11-1.11v-1.866a1.2 1.2 0 0 0-1.16-1.11z" class="prefix__cls-1" data-name="Path 16810" transform="translate(-74.237 -137.548)"/>
                <path id="prefix__Path_16811" d="M132.952 137.8H122.61a1.12 1.12 0 0 0-1.11 1.11v18.313a1.12 1.12 0 0 0 1.11 1.11h2.371a1.12 1.12 0 0 0 1.11-1.11v-7.113h5.7A1.12 1.12 0 0 0 132.9 149v-1.867a1.12 1.12 0 0 0-1.11-1.11h-5.7v-4.137H133a1.12 1.12 0 0 0 1.11-1.11v-1.866a1.2 1.2 0 0 0-1.16-1.11z" class="prefix__cls-1" data-name="Path 16811" transform="translate(-87.17 -137.548)"/>
                <path id="prefix__Path_16812" d="M158.8 141.886a1.12 1.12 0 0 0 1.11-1.11v-1.866a1.12 1.12 0 0 0-1.11-1.11h-10.09a1.12 1.12 0 0 0-1.11 1.11v18.313a1.12 1.12 0 0 0 1.11 1.11h10.09a1.12 1.12 0 0 0 1.11-1.11v-1.917a1.12 1.12 0 0 0-1.11-1.11h-6.66v-4.187h5.852a1.12 1.12 0 0 0 1.11-1.11v-1.816a1.12 1.12 0 0 0-1.11-1.11h-5.852v-4.086z" class="prefix__cls-1" data-name="Path 16812" transform="translate(-100.102 -137.548)"/>
                <path id="prefix__Path_16813" d="M188.028 156.617l-4.137-6.256a5.928 5.928 0 0 0 4.187-6 6.205 6.205 0 0 0-1.917-4.742 7.561 7.561 0 0 0-5.448-1.816h-6a1.12 1.12 0 0 0-1.11 1.11v18.313a1.12 1.12 0 0 0 1.11 1.11h2.371a1.12 1.12 0 0 0 1.11-1.11v-6.407h.858l4.44 6.962a1.127 1.127 0 0 0 .908.5h2.674a1.12 1.12 0 0 0 1.11-1.11.722.722 0 0 0-.156-.554zm-7.466-9.686h-2.371v-4.894h2.371c2.573 0 2.926 1.16 2.926 2.422s-.353 2.472-2.926 2.472z" class="prefix__cls-1" data-name="Path 16813" transform="translate(-112.986 -137.548)"/>
            </g>
            <g id="prefix__Group_1871" data-name="Group 1871" transform="translate(-67.153 46.143)">
                <path id="prefix__Path_16817" d="M62.984 106.716a5.135 5.135 0 0 0-1.665-1.463 18.448 18.448 0 0 0-2.319-.908 17.268 17.268 0 0 1-1.715-.656 2.175 2.175 0 0 1-.858-.656 1.511 1.511 0 0 1-.3-.908 1.32 1.32 0 0 1 .454-1.11 1.9 1.9 0 0 1 1.362-.4 1.961 1.961 0 0 1 2.119 1.564.7.7 0 0 0 .656.555h1.968a.668.668 0 0 0 .656-.656v-.1a4.676 4.676 0 0 0-1.665-3.027 5.635 5.635 0 0 0-3.784-1.16 6.57 6.57 0 0 0-2.623.5 4.2 4.2 0 0 0-1.816 1.564 4.261 4.261 0 0 0-.656 2.321 3.938 3.938 0 0 0 .706 2.472 4.536 4.536 0 0 0 1.665 1.413 13.889 13.889 0 0 0 2.27.858c.605.2 1.16.4 1.766.656a2.465 2.465 0 0 1 .908.706 1.838 1.838 0 0 1-.151 2.22 1.845 1.845 0 0 1-1.413.454 2.735 2.735 0 0 1-1.261-.3 1.71 1.71 0 0 1-.757-.706 1.944 1.944 0 0 1-.3-.908.658.658 0 0 0-.656-.605H53.6a.668.668 0 0 0-.656.656v.05a4.057 4.057 0 0 0 .908 2.371 4.876 4.876 0 0 0 2.018 1.614 7.044 7.044 0 0 0 5.6-.05 4.53 4.53 0 0 0 1.715-1.665 4.67 4.67 0 0 0 .555-2.22 4.571 4.571 0 0 0-.757-2.472z" class="prefix__cls-1" data-name="Path 16817" transform="translate(-52.787 -97.772)"/>
                <path id="prefix__Path_16818" d="M86.033 99.712A5.982 5.982 0 0 0 81.9 98.4h-4.54a.668.668 0 0 0-.656.656v14.277a.668.668 0 0 0 .656.656h1.867a.668.668 0 0 0 .656-.656v-5.1H81.9a5.931 5.931 0 0 0 4.086-1.312 4.487 4.487 0 0 0 1.463-3.632 4.678 4.678 0 0 0-1.416-3.577zm-2.321 5.146a2.8 2.8 0 0 1-1.968.5h-1.866v-4.137h1.867a2.97 2.97 0 0 1 1.968.5 2.008 2.008 0 0 1 .555 1.564 2.573 2.573 0 0 1-.556 1.572z" class="prefix__cls-1" data-name="Path 16818" transform="translate(-64.636 -98.083)"/>
                <path id="prefix__Path_16819" d="M108.226 101.125a.668.668 0 0 0 .656-.656v-1.513a.668.668 0 0 0-.656-.656h-7.87a.668.668 0 0 0-.656.656v14.327a.668.668 0 0 0 .656.656h7.87a.668.668 0 0 0 .656-.656v-1.513a.668.668 0 0 0-.656-.656h-5.4v-3.683h4.793a.668.668 0 0 0 .656-.656v-1.413a.668.668 0 0 0-.656-.656h-4.793v-3.582z" class="prefix__cls-1" data-name="Path 16819" transform="translate(-76.033 -98.034)"/>
                <path id="prefix__Path_16820" d="M133.127 107.734h-1.967a.656.656 0 0 0-.605.4 4.166 4.166 0 0 1-1.513 1.967 4.291 4.291 0 0 1-2.623.706 3.875 3.875 0 0 1-3.632-2.27 5.24 5.24 0 0 1-.555-2.623 6.207 6.207 0 0 1 .555-2.674 3.925 3.925 0 0 1 3.632-2.27 4.482 4.482 0 0 1 2.623.706 3.937 3.937 0 0 1 1.513 1.968.656.656 0 0 0 .605.4h1.967a.668.668 0 0 0 .656-.656.381.381 0 0 0-.05-.2 7.469 7.469 0 0 0-2.573-3.885 7.843 7.843 0 0 0-4.742-1.413 7.961 7.961 0 0 0-3.885 1.009 7.342 7.342 0 0 0-2.674 2.876 9.19 9.19 0 0 0 0 8.173 6.867 6.867 0 0 0 2.674 2.825 7 7 0 0 0 3.885 1.009 8.049 8.049 0 0 0 4.742-1.413 7.093 7.093 0 0 0 2.573-3.885.648.648 0 0 0-.454-.807.185.185 0 0 1-.152.057z" class="prefix__cls-1" data-name="Path 16820" transform="translate(-85.547 -97.832)"/>
                <path id="prefix__Path_16821" d="M151.35 98.3h1.867a.668.668 0 0 1 .656.656v14.327a.668.668 0 0 1-.656.656h-1.867a.668.668 0 0 1-.656-.656V98.956a.608.608 0 0 1 .656-.656z" class="prefix__cls-1" data-name="Path 16821" transform="translate(-101.299 -98.034)"/>
                <path id="prefix__Path_16822" d="M171.923 113.279l-5.3-14.025a.707.707 0 0 0-.605-.454h-2.068a.634.634 0 0 0-.605.454l-5.3 14.025a.654.654 0 0 0 .4.858.378.378 0 0 0 .252.05h1.967a.559.559 0 0 0 .605-.454l1.059-2.876h5.348l1.059 2.876a.707.707 0 0 0 .605.454h1.967a.668.668 0 0 0 .656-.656.455.455 0 0 0-.04-.252zm-8.576-5.146l1.665-4.591 1.665 4.591z" class="prefix__cls-1" data-name="Path 16822" transform="translate(-104.921 -98.282)"/>
                <path id="prefix__Path_16823" d="M194.367 111.164h-4.389V98.956a.668.668 0 0 0-.656-.656h-1.867a.668.668 0 0 0-.656.656v14.327a.668.668 0 0 0 .656.656h6.911a.668.668 0 0 0 .656-.656v-1.463a.636.636 0 0 0-.656-.656z" class="prefix__cls-1" data-name="Path 16823" transform="translate(-119.192 -98.034)"/>
            </g>
        </g>
    </g>
</svg>
