<svg xmlns="http://www.w3.org/2000/svg" id="prefix__Group_2053" width="114.62" height="16.668" data-name="Group 2053" viewBox="0 0 114.62 16.668">
    <defs>
        <style>
            .prefix__cls-1{fill:#fad403}
        </style>
    </defs>
    <path id="prefix__star_2_" d="M17.347 6.794a.923.923 0 0 0-.8-.635L11.531 5.7 9.547 1.058a.925.925 0 0 0-1.7 0L5.862 5.7.84 6.159a.926.926 0 0 0-.525 1.618L4.11 11.1l-1.119 4.933a.924.924 0 0 0 1.376 1L8.7 14.444l4.329 2.589a.925.925 0 0 0 1.376-1L13.282 11.1l3.8-3.328a.926.926 0 0 0 .265-.978zm-8.568 7.6" class="prefix__cls-1" data-name="star (2)" transform="translate(0 -.496)"/>
    <path id="prefix__star_2_2" d="M17.347 6.794a.923.923 0 0 0-.8-.635L11.531 5.7 9.547 1.058a.925.925 0 0 0-1.7 0L5.862 5.7.84 6.159a.926.926 0 0 0-.525 1.618L4.11 11.1l-1.119 4.933a.924.924 0 0 0 1.376 1L8.7 14.444l4.329 2.589a.925.925 0 0 0 1.376-1L13.282 11.1l3.8-3.328a.926.926 0 0 0 .265-.978zm-8.568 7.6" class="prefix__cls-1" data-name="star (2)" transform="translate(48.614 -.496)"/>
    <path id="prefix__star_2_3" d="M17.347 6.794a.923.923 0 0 0-.8-.635L11.531 5.7 9.547 1.058a.925.925 0 0 0-1.7 0L5.862 5.7.84 6.159a.926.926 0 0 0-.525 1.618L4.11 11.1l-1.119 4.933a.924.924 0 0 0 1.376 1L8.7 14.444l4.329 2.589a.925.925 0 0 0 1.376-1L13.282 11.1l3.8-3.328a.926.926 0 0 0 .265-.978zm-8.568 7.6" class="prefix__cls-1" data-name="star (2)" transform="translate(24.307 -.496)"/>
    <path id="prefix__star_2_4" d="M17.347 6.794a.923.923 0 0 0-.8-.635L11.531 5.7 9.547 1.058a.925.925 0 0 0-1.7 0L5.862 5.7.84 6.159a.926.926 0 0 0-.525 1.618L4.11 11.1l-1.119 4.933a.924.924 0 0 0 1.376 1L8.7 14.444l4.329 2.589a.925.925 0 0 0 1.376-1L13.282 11.1l3.8-3.328a.926.926 0 0 0 .265-.978zm-8.568 7.6" class="prefix__cls-1" data-name="star (2)" transform="translate(72.921 -.496)"/>
    <path id="prefix__star_2_5" d="M17.347 6.794a.923.923 0 0 0-.8-.635L11.531 5.7 9.547 1.058a.925.925 0 0 0-1.7 0L5.862 5.7.84 6.159a.926.926 0 0 0-.525 1.618L4.11 11.1l-1.119 4.933a.924.924 0 0 0 1.376 1L8.7 14.444l4.329 2.589a.925.925 0 0 0 1.376-1L13.282 11.1l3.8-3.328a.926.926 0 0 0 .265-.978zm-8.568 7.6" class="prefix__cls-1" data-name="star (2)" transform="translate(97.228 -.496)"/>
</svg>
