<svg xmlns="http://www.w3.org/2000/svg" id="prefix__success-2" width="66" height="66" viewBox="0 0 66 66">
    <defs>
        <style>
            .prefix__cls-3{fill:#574f76}
        </style>
    </defs>
    <path id="prefix__Path_10703" d="M143.375 16.426c-13.894 3.319-24.707 16.19-24.707 30.883s10.813 27.564 24.707 30.883c13.893-3.319 24.707-16.19 24.707-30.883s-10.814-27.564-24.707-30.883zm0 0" data-name="Path 10703" transform="translate(-103.371 -14.308)" style="fill:#d8cdba"/>
    <path id="prefix__Path_10704" d="M165.8 177.133a3.866 3.866 0 0 1 0 5.468l-15.464 15.469a3.866 3.866 0 0 1-5.468 0l-7.734-7.734a3.867 3.867 0 0 1 5.468-5.468l5 5 12.735-12.735a3.866 3.866 0 0 1 5.463 0zm0 0" data-name="Path 10704" transform="translate(-118.469 -153.313)" style="fill:#fff"/>
    <path id="prefix__Path_10705" d="M63.341 20.323A34.3 34.3 0 0 0 45.677 2.659a31.55 31.55 0 0 0-25.353 0A34.3 34.3 0 0 0 2.659 20.323a31.55 31.55 0 0 0 0 25.353 34.3 34.3 0 0 0 17.664 17.665 31.55 31.55 0 0 0 25.353 0 34.3 34.3 0 0 0 17.665-17.664 31.55 31.55 0 0 0 0-25.353zM33 63.422A30.829 30.829 0 0 1 2.578 33 30.829 30.829 0 0 1 33 2.578 30.829 30.829 0 0 1 63.422 33 30.829 30.829 0 0 1 33 63.422zm0 0" class="prefix__cls-3" data-name="Path 10705"/>
    <path id="prefix__Path_10706" d="M95.72 59.862a28.2 28.2 0 0 0-14.667-14.667A26.648 26.648 0 0 0 70.457 43a27.246 27.246 0 0 0-14.946 4.9 1.289 1.289 0 0 0 1.427 2.147 24.689 24.689 0 0 1 13.519-4.465 24.879 24.879 0 1 1-24.879 24.875 24.7 24.7 0 0 1 4.464-13.52 1.289 1.289 0 0 0-2.148-1.426A27.254 27.254 0 0 0 43 70.457a26.656 26.656 0 0 0 2.194 10.6 28.2 28.2 0 0 0 14.668 14.662 26.674 26.674 0 0 0 21.191 0 28.2 28.2 0 0 0 14.666-14.666 26.674 26.674 0 0 0 0-21.191zm0 0" class="prefix__cls-3" data-name="Path 10706" transform="translate(-37.457 -37.457)"/>
    <path id="prefix__Path_10707" d="M127.511 182.536l7.734 7.734a5.154 5.154 0 0 0 7.291 0L158 174.8a5.156 5.156 0 1 0-7.291-7.292l-11.823 11.823-4.089-4.089a5.156 5.156 0 1 0-7.291 7.291zm1.823-5.468a2.577 2.577 0 0 1 3.646 0l5.912 5.912 13.646-13.646a2.578 2.578 0 1 1 3.646 3.646l-15.469 15.469a2.577 2.577 0 0 1-3.646 0l-7.734-7.735a2.577 2.577 0 0 1 0-3.645zm0 0" data-name="Path 10707" transform="translate(-109.758 -144.602)" style="fill:#585077"/>
    <path id="prefix__Path_10708" d="M106.289 105a1.289 1.289 0 1 0 1.289 1.289 1.29 1.29 0 0 0-1.289-1.289zm0 0" class="prefix__cls-3" data-name="Path 10708" transform="translate(-91.465 -91.465)"/>
</svg>
